M48
;Layer_Color=9474304
;FILE_FORMAT=4:4
METRIC,LZ
;TYPE=PLATED
T01F00S00C0.8000
T02F00S00C0.8890
T03F00S00C0.9000
T04F00S00C1.0160
T05F00S00C1.1000
T06F00S00C1.1100
T07F00S00C1.5000
T08F00S00C1.6500
T09F00S00C2.5400
T10F00S00C4.1000
%
T01
X00685Y00548
Y005734
Y005988
Y006242
Y006496
Y00675
Y007004
Y007258
X007612
Y007004
Y00675
Y006496
Y006242
Y005988
Y005734
Y00548
T02
X007241Y001095
Y001349
Y001603
Y001857
Y002111
Y002365
Y002619
Y002873
Y003127
Y003381
Y003635
Y003889
Y004143
Y004397
X007495
Y004143
Y003889
Y003635
Y003381
Y003127
Y002873
Y002619
Y002365
Y002111
Y001857
Y001603
Y001349
Y001095
Y004651
X007241
T03
X004828Y003655
Y003905
Y004155
Y004405
Y004655
Y004905
T04
X006352Y003635
Y003889
Y004143
Y004397
X005336
Y004143
Y003889
Y003635
Y004651
Y004905
X006352
Y004651
T05
X003688Y000557
X00445
Y000807
Y001057
Y0017
Y00195
Y0022
X003688
Y00195
Y0017
Y001057
Y000807
X00381Y00605
X00356
X0033
X00459Y00603
Y00578
Y00628
Y00653
Y00678
Y00703
Y00728
Y00753
Y00778
X005352
Y00753
Y00728
Y00703
Y00678
Y00653
Y00628
Y00603
Y00578
X006114Y007026
Y007276
Y007526
T06
X005082Y000714
Y000968
Y001222
Y001476
Y00173
Y001984
Y002238
Y002492
Y002746
Y003
T07
X0027Y00057
Y00283
X00059Y005
X00057Y00615
X00283
X00285Y005
T08
X00395Y0044
X00105Y004092
Y003696
Y0033
Y00255
Y002154
Y001758
Y001362
X00395Y004796
T09
X0063266Y000714
Y003
T10
X0004Y0004
X0078
X0004Y0081
X0078
M30
