G04*
G04 #@! TF.GenerationSoftware,Altium Limited,Altium Designer,24.6.1 (21)*
G04*
G04 Layer_Color=255*
%FSLAX44Y44*%
%MOMM*%
G71*
G04*
G04 #@! TF.SameCoordinates,E9AD6EAF-A10B-4CD1-A982-26115741FB32*
G04*
G04*
G04 #@! TF.FilePolarity,Positive*
G04*
G01*
G75*
%ADD16R,0.9100X1.3900*%
%ADD17R,1.3900X0.9100*%
%ADD18R,1.8500X3.2000*%
%ADD19R,1.8500X0.9000*%
%ADD20R,1.3000X1.1500*%
%ADD21R,1.2700X0.7500*%
%ADD22R,3.8100X3.9100*%
%ADD23R,1.2500X1.0000*%
%ADD24R,1.4000X1.5500*%
%ADD25R,1.2000X1.2000*%
%ADD26R,0.7400X1.0400*%
%ADD45C,1.4000*%
%ADD46R,1.4000X1.4000*%
%ADD59C,1.2000*%
%ADD60R,1.2000X1.2000*%
%ADD61C,1.6500*%
%ADD62R,1.6500X1.6500*%
%ADD63C,1.6650*%
%ADD64C,3.8100*%
%ADD65C,1.5240*%
%ADD66R,1.5240X1.5240*%
%ADD67C,1.6000*%
%ADD68C,2.2500*%
%ADD69R,2.4750X2.4750*%
%ADD70C,2.4750*%
%ADD71C,2.1500*%
%ADD72R,2.1500X2.1500*%
D16*
X668600Y750000D02*
D03*
X685000D02*
D03*
D17*
X363100Y311200D02*
D03*
Y294800D02*
D03*
X343100Y311200D02*
D03*
Y294800D02*
D03*
D18*
X451000Y290000D02*
D03*
D19*
X389000Y267000D02*
D03*
Y290000D02*
D03*
Y313000D02*
D03*
D20*
X320000Y444000D02*
D03*
Y475000D02*
D03*
D21*
X230000Y405000D02*
D03*
Y417700D02*
D03*
Y430400D02*
D03*
Y392300D02*
D03*
X283400D02*
D03*
Y430400D02*
D03*
Y417700D02*
D03*
Y405000D02*
D03*
D22*
X263600Y411350D02*
D03*
D23*
X210000Y405000D02*
D03*
Y390000D02*
D03*
D24*
X210500Y365000D02*
D03*
X229500D02*
D03*
D25*
X180000Y385500D02*
D03*
Y364500D02*
D03*
D26*
X211500Y340000D02*
D03*
X178500D02*
D03*
D45*
X482800Y490500D02*
D03*
Y465500D02*
D03*
Y440500D02*
D03*
Y415500D02*
D03*
Y390500D02*
D03*
D46*
Y365500D02*
D03*
D59*
X761200Y725800D02*
D03*
Y700400D02*
D03*
Y675000D02*
D03*
Y649600D02*
D03*
Y624200D02*
D03*
Y598800D02*
D03*
Y573400D02*
D03*
Y548000D02*
D03*
X685000D02*
D03*
Y573400D02*
D03*
Y598800D02*
D03*
Y624200D02*
D03*
Y649600D02*
D03*
Y675000D02*
D03*
Y700400D02*
D03*
D60*
Y725800D02*
D03*
D61*
X611400Y702600D02*
D03*
Y727600D02*
D03*
X535200Y778000D02*
D03*
Y753000D02*
D03*
Y728000D02*
D03*
Y703000D02*
D03*
Y678000D02*
D03*
Y653000D02*
D03*
Y628000D02*
D03*
Y603000D02*
D03*
X459000D02*
D03*
Y628000D02*
D03*
Y653000D02*
D03*
Y678000D02*
D03*
Y703000D02*
D03*
Y728000D02*
D03*
Y753000D02*
D03*
Y778000D02*
D03*
X445000Y80700D02*
D03*
Y55700D02*
D03*
X368800Y80700D02*
D03*
Y55700D02*
D03*
X445000Y170000D02*
D03*
Y195000D02*
D03*
X368800Y170000D02*
D03*
Y195000D02*
D03*
D62*
X611400Y752600D02*
D03*
X535200Y578000D02*
D03*
X459000D02*
D03*
X445000Y105700D02*
D03*
X368800D02*
D03*
X445000Y220000D02*
D03*
X368800D02*
D03*
D63*
X508200Y300000D02*
D03*
Y274600D02*
D03*
Y249200D02*
D03*
Y223800D02*
D03*
Y198400D02*
D03*
Y173000D02*
D03*
Y147600D02*
D03*
Y122200D02*
D03*
Y96800D02*
D03*
Y71400D02*
D03*
D64*
X632660Y300000D02*
D03*
Y71400D02*
D03*
D65*
X533600Y490500D02*
D03*
Y465100D02*
D03*
Y439700D02*
D03*
Y414300D02*
D03*
Y388900D02*
D03*
X635200Y490500D02*
D03*
Y465100D02*
D03*
Y439700D02*
D03*
Y414300D02*
D03*
Y388900D02*
D03*
X724100Y109500D02*
D03*
Y134900D02*
D03*
Y160300D02*
D03*
Y185700D02*
D03*
Y211100D02*
D03*
Y236500D02*
D03*
Y261900D02*
D03*
Y287300D02*
D03*
Y312700D02*
D03*
Y338100D02*
D03*
Y363500D02*
D03*
Y388900D02*
D03*
Y414300D02*
D03*
Y439700D02*
D03*
Y465100D02*
D03*
X749500Y109500D02*
D03*
Y134900D02*
D03*
Y160300D02*
D03*
Y185700D02*
D03*
Y211100D02*
D03*
Y236500D02*
D03*
Y261900D02*
D03*
Y287300D02*
D03*
Y312700D02*
D03*
Y338100D02*
D03*
Y363500D02*
D03*
Y388900D02*
D03*
Y414300D02*
D03*
Y439700D02*
D03*
Y465100D02*
D03*
D66*
X533600Y363500D02*
D03*
X635200D02*
D03*
D67*
X356000Y605000D02*
D03*
X381000D02*
D03*
X330000D02*
D03*
D68*
X270000Y283000D02*
D03*
Y57000D02*
D03*
X285000Y500000D02*
D03*
X59000D02*
D03*
X283000Y615000D02*
D03*
X57000D02*
D03*
D69*
X395000Y479600D02*
D03*
D70*
Y440000D02*
D03*
D71*
X105000Y409200D02*
D03*
Y369600D02*
D03*
Y255000D02*
D03*
Y175800D02*
D03*
Y215400D02*
D03*
D72*
Y330000D02*
D03*
Y136200D02*
D03*
M02*
