G04*
G04 #@! TF.GenerationSoftware,Altium Limited,Altium Designer,24.6.1 (21)*
G04*
G04 Layer_Physical_Order=1*
G04 Layer_Color=255*
%FSLAX44Y44*%
%MOMM*%
G71*
G04*
G04 #@! TF.SameCoordinates,E9AD6EAF-A10B-4CD1-A982-26115741FB32*
G04*
G04*
G04 #@! TF.FilePolarity,Positive*
G04*
G01*
G75*
%ADD10C,0.2500*%
%ADD16R,0.9100X1.3900*%
%ADD17R,1.3900X0.9100*%
%ADD18R,1.8500X3.2000*%
%ADD19R,1.8500X0.9000*%
%ADD20R,1.3000X1.1500*%
%ADD21R,1.2700X0.7500*%
%ADD22R,3.8100X3.9100*%
%ADD23R,1.2500X1.0000*%
%ADD24R,1.4000X1.5500*%
%ADD25R,1.2000X1.2000*%
%ADD26R,0.7400X1.0400*%
%ADD45C,1.4000*%
%ADD46R,1.4000X1.4000*%
%ADD54C,1.0000*%
%ADD55C,3.0000*%
%ADD56C,2.0000*%
%ADD57C,0.5000*%
%ADD58C,1.2000*%
%ADD59C,1.2000*%
%ADD60R,1.2000X1.2000*%
%ADD61C,1.6500*%
%ADD62R,1.6500X1.6500*%
%ADD63C,1.6650*%
%ADD64C,3.8100*%
%ADD65C,1.5240*%
%ADD66R,1.5240X1.5240*%
%ADD67C,1.6000*%
%ADD68C,2.2500*%
%ADD69R,2.4750X2.4750*%
%ADD70C,2.4750*%
%ADD71C,2.1500*%
%ADD72R,2.1500X2.1500*%
%ADD73C,4.1000*%
G36*
X730000Y760000D02*
X810000D01*
Y90000D01*
X730000D01*
Y10000D01*
X90000D01*
Y90000D01*
X10000D01*
Y760000D01*
X90000D01*
Y840000D01*
X730000D01*
Y760000D01*
D02*
G37*
%LPC*%
G36*
X536615Y788750D02*
X533785D01*
X531051Y788017D01*
X528599Y786602D01*
X526598Y784601D01*
X525183Y782149D01*
X524450Y779415D01*
Y776585D01*
X525183Y773851D01*
X526598Y771399D01*
X528599Y769398D01*
X531051Y767983D01*
X533785Y767250D01*
X536615D01*
X539349Y767983D01*
X541801Y769398D01*
X543802Y771399D01*
X545217Y773851D01*
X545950Y776585D01*
Y779415D01*
X545217Y782149D01*
X543802Y784601D01*
X541801Y786602D01*
X539349Y788017D01*
X536615Y788750D01*
D02*
G37*
G36*
X460415D02*
X457585D01*
X454851Y788017D01*
X452399Y786602D01*
X450398Y784601D01*
X448983Y782149D01*
X448250Y779415D01*
Y776585D01*
X448983Y773851D01*
X450398Y771399D01*
X452399Y769398D01*
X454851Y767983D01*
X457585Y767250D01*
X460415D01*
X463149Y767983D01*
X465601Y769398D01*
X467602Y771399D01*
X469017Y773851D01*
X469750Y776585D01*
Y779415D01*
X469017Y782149D01*
X467602Y784601D01*
X465601Y786602D01*
X463149Y788017D01*
X460415Y788750D01*
D02*
G37*
G36*
X536615Y763750D02*
X533785D01*
X531051Y763017D01*
X528599Y761602D01*
X526598Y759601D01*
X525730Y758098D01*
X468470D01*
X467602Y759601D01*
X465601Y761602D01*
X463149Y763017D01*
X460415Y763750D01*
X457585D01*
X454851Y763017D01*
X452399Y761602D01*
X450398Y759601D01*
X448983Y757149D01*
X448250Y754415D01*
Y751585D01*
X448983Y748851D01*
X450398Y746399D01*
X452399Y744398D01*
X454851Y742983D01*
X457585Y742250D01*
X460415D01*
X463149Y742983D01*
X465601Y744398D01*
X467602Y746399D01*
X468470Y747902D01*
X525730D01*
X526598Y746399D01*
X528599Y744398D01*
X531051Y742983D01*
X533785Y742250D01*
X536615D01*
X539349Y742983D01*
X541801Y744398D01*
X543802Y746399D01*
X544670Y747902D01*
X600650D01*
Y741850D01*
X622150D01*
Y745176D01*
X624460Y746133D01*
X649468Y721125D01*
Y706709D01*
X649759Y705246D01*
X650587Y704005D01*
X676917Y677676D01*
X676500Y676119D01*
Y673881D01*
X677079Y671719D01*
X678198Y669781D01*
X679781Y668198D01*
X681719Y667079D01*
X683881Y666500D01*
X686119D01*
X688281Y667079D01*
X690219Y668198D01*
X691802Y669781D01*
X692921Y671719D01*
X693500Y673881D01*
Y676119D01*
X692921Y678281D01*
X691802Y680219D01*
X690219Y681802D01*
X688281Y682921D01*
X686119Y683500D01*
X683881D01*
X682324Y683083D01*
X657115Y708293D01*
Y722709D01*
X656824Y724172D01*
X655995Y725412D01*
X626104Y755304D01*
X624863Y756132D01*
X623400Y756423D01*
X622150D01*
Y763350D01*
X600650D01*
Y758098D01*
X544670D01*
X543802Y759601D01*
X541801Y761602D01*
X539349Y763017D01*
X536615Y763750D01*
D02*
G37*
G36*
X667330Y759490D02*
X661510D01*
Y751270D01*
X667330D01*
Y759490D01*
D02*
G37*
G36*
Y748730D02*
X661510D01*
Y740510D01*
X667330D01*
Y748730D01*
D02*
G37*
G36*
X536615Y738750D02*
X533785D01*
X531051Y738017D01*
X528599Y736602D01*
X526598Y734601D01*
X525730Y733098D01*
X468470D01*
X467602Y734601D01*
X465601Y736602D01*
X463149Y738017D01*
X460415Y738750D01*
X457585D01*
X454851Y738017D01*
X452399Y736602D01*
X450398Y734601D01*
X448983Y732149D01*
X448250Y729415D01*
Y726585D01*
X448983Y723851D01*
X450398Y721399D01*
X452399Y719398D01*
X454851Y717983D01*
X457585Y717250D01*
X460415D01*
X463149Y717983D01*
X465601Y719398D01*
X467602Y721399D01*
X468470Y722902D01*
X525730D01*
X526598Y721399D01*
X528599Y719398D01*
X531051Y717983D01*
X533785Y717250D01*
X536615D01*
X539349Y717983D01*
X541801Y719398D01*
X543802Y721399D01*
X544554Y722702D01*
X601815D01*
X602798Y720999D01*
X604799Y718998D01*
X607251Y717583D01*
X609985Y716850D01*
X612815D01*
X615549Y717583D01*
X615841Y717751D01*
X644807Y688786D01*
Y660570D01*
X645098Y659106D01*
X645927Y657866D01*
X676917Y626876D01*
X676500Y625319D01*
Y623081D01*
X677079Y620919D01*
X678198Y618981D01*
X679781Y617398D01*
X681719Y616279D01*
X683881Y615700D01*
X686119D01*
X688281Y616279D01*
X690219Y617398D01*
X691802Y618981D01*
X692921Y620919D01*
X692964Y621082D01*
X695753Y621829D01*
X700417Y617165D01*
Y459560D01*
X700708Y458097D01*
X701536Y456856D01*
X714713Y443680D01*
X714670Y443606D01*
X713980Y441032D01*
Y438368D01*
X714670Y435794D01*
X716002Y433486D01*
X717886Y431602D01*
X720194Y430270D01*
X722768Y429580D01*
X725432D01*
X728006Y430270D01*
X730314Y431602D01*
X732198Y433486D01*
X733530Y435794D01*
X734220Y438368D01*
Y441032D01*
X733530Y443606D01*
X732198Y445914D01*
X730314Y447798D01*
X728006Y449130D01*
X725432Y449820D01*
X722768D01*
X720194Y449130D01*
X720120Y449087D01*
X708064Y461144D01*
Y618749D01*
X707772Y620212D01*
X706944Y621452D01*
X688823Y639572D01*
Y641992D01*
X690219Y642798D01*
X691802Y644381D01*
X692921Y646319D01*
X693500Y648481D01*
Y650719D01*
X692921Y652881D01*
X691802Y654819D01*
X690219Y656402D01*
X688281Y657521D01*
X686119Y658100D01*
X683881D01*
X681719Y657521D01*
X679781Y656402D01*
X678198Y654819D01*
X677079Y652881D01*
X676500Y650719D01*
Y648481D01*
X677079Y646319D01*
X678198Y644381D01*
X679781Y642798D01*
X681177Y641992D01*
Y637989D01*
X681430Y636712D01*
X681319Y636564D01*
X678704Y635903D01*
X652454Y662153D01*
Y690369D01*
X652163Y691833D01*
X651334Y693073D01*
X621249Y723158D01*
X621417Y723451D01*
X622150Y726185D01*
Y729015D01*
X621417Y731749D01*
X620002Y734201D01*
X618001Y736202D01*
X615549Y737617D01*
X612815Y738350D01*
X609985D01*
X607251Y737617D01*
X604799Y736202D01*
X602798Y734201D01*
X602046Y732898D01*
X544785D01*
X543802Y734601D01*
X541801Y736602D01*
X539349Y738017D01*
X536615Y738750D01*
D02*
G37*
G36*
X762319Y734300D02*
X760081D01*
X757919Y733721D01*
X755981Y732602D01*
X754398Y731019D01*
X753279Y729081D01*
X752700Y726919D01*
Y724681D01*
X753279Y722519D01*
X754398Y720581D01*
X755981Y718998D01*
X757919Y717879D01*
X760081Y717300D01*
X762319D01*
X764481Y717879D01*
X766419Y718998D01*
X768002Y720581D01*
X769121Y722519D01*
X769700Y724681D01*
Y726919D01*
X769121Y729081D01*
X768002Y731019D01*
X766419Y732602D01*
X764481Y733721D01*
X762319Y734300D01*
D02*
G37*
G36*
X675690Y759490D02*
X675467Y759490D01*
X669870D01*
Y750000D01*
Y740510D01*
X674935D01*
X675690Y740510D01*
X677435Y738733D01*
Y734300D01*
X676500D01*
Y717300D01*
X693500D01*
Y734300D01*
X692565D01*
Y750000D01*
X692307Y751958D01*
X692050Y752578D01*
Y759450D01*
X678173D01*
X675690Y759490D01*
D02*
G37*
G36*
X612821Y713390D02*
X612670D01*
Y703870D01*
X622190D01*
Y704020D01*
X621455Y706765D01*
X620034Y709225D01*
X618025Y711234D01*
X615565Y712655D01*
X612821Y713390D01*
D02*
G37*
G36*
X610130D02*
X609980D01*
X607235Y712655D01*
X604775Y711234D01*
X602766Y709225D01*
X601345Y706765D01*
X600610Y704020D01*
Y703870D01*
X610130D01*
Y713390D01*
D02*
G37*
G36*
X536615Y713750D02*
X533785D01*
X531051Y713017D01*
X528599Y711602D01*
X526598Y709601D01*
X525183Y707149D01*
X524450Y704415D01*
Y701585D01*
X525183Y698851D01*
X526598Y696399D01*
X528599Y694398D01*
X531051Y692983D01*
X533785Y692250D01*
X536615D01*
X539349Y692983D01*
X541801Y694398D01*
X543802Y696399D01*
X545217Y698851D01*
X545950Y701585D01*
Y704415D01*
X545217Y707149D01*
X543802Y709601D01*
X541801Y711602D01*
X539349Y713017D01*
X536615Y713750D01*
D02*
G37*
G36*
X460415D02*
X457585D01*
X454851Y713017D01*
X452399Y711602D01*
X450398Y709601D01*
X448983Y707149D01*
X448250Y704415D01*
Y701585D01*
X448983Y698851D01*
X450398Y696399D01*
X452399Y694398D01*
X454851Y692983D01*
X457585Y692250D01*
X460415D01*
X463149Y692983D01*
X465601Y694398D01*
X467602Y696399D01*
X469017Y698851D01*
X469750Y701585D01*
Y704415D01*
X469017Y707149D01*
X467602Y709601D01*
X465601Y711602D01*
X463149Y713017D01*
X460415Y713750D01*
D02*
G37*
G36*
X762319Y708900D02*
X760081D01*
X757919Y708321D01*
X755981Y707202D01*
X754398Y705619D01*
X753279Y703681D01*
X752700Y701519D01*
Y699281D01*
X753279Y697119D01*
X754398Y695181D01*
X755981Y693598D01*
X757919Y692479D01*
X760081Y691900D01*
X762319D01*
X764481Y692479D01*
X766419Y693598D01*
X768002Y695181D01*
X769121Y697119D01*
X769700Y699281D01*
Y701519D01*
X769121Y703681D01*
X768002Y705619D01*
X766419Y707202D01*
X764481Y708321D01*
X762319Y708900D01*
D02*
G37*
G36*
X622190Y701330D02*
X612670D01*
Y691810D01*
X612821D01*
X615565Y692545D01*
X618025Y693966D01*
X620034Y695975D01*
X621455Y698435D01*
X622190Y701180D01*
Y701330D01*
D02*
G37*
G36*
X610130D02*
X600610D01*
Y701180D01*
X601345Y698435D01*
X602766Y695975D01*
X604775Y693966D01*
X607235Y692545D01*
X609980Y691810D01*
X610130D01*
Y701330D01*
D02*
G37*
G36*
X536620Y688790D02*
X536470D01*
Y679270D01*
X545990D01*
Y679420D01*
X545255Y682165D01*
X543834Y684625D01*
X541825Y686634D01*
X539365Y688055D01*
X536620Y688790D01*
D02*
G37*
G36*
X460420D02*
X460270D01*
Y679270D01*
X469790D01*
Y679420D01*
X469055Y682165D01*
X467634Y684625D01*
X465625Y686634D01*
X463165Y688055D01*
X460420Y688790D01*
D02*
G37*
G36*
X533930D02*
X533779D01*
X531035Y688055D01*
X528575Y686634D01*
X526566Y684625D01*
X525145Y682165D01*
X524410Y679420D01*
Y679270D01*
X533930D01*
Y688790D01*
D02*
G37*
G36*
X457730D02*
X457579D01*
X454835Y688055D01*
X452375Y686634D01*
X450366Y684625D01*
X448945Y682165D01*
X448210Y679420D01*
Y679270D01*
X457730D01*
Y688790D01*
D02*
G37*
G36*
X545990Y676730D02*
X536470D01*
Y667210D01*
X536620D01*
X539365Y667945D01*
X541825Y669366D01*
X543834Y671375D01*
X545255Y673835D01*
X545990Y676580D01*
Y676730D01*
D02*
G37*
G36*
X533930D02*
X524410D01*
Y676580D01*
X525145Y673835D01*
X526566Y671375D01*
X528575Y669366D01*
X531035Y667945D01*
X533779Y667210D01*
X533930D01*
Y676730D01*
D02*
G37*
G36*
X469790D02*
X460270D01*
Y667210D01*
X460420D01*
X463165Y667945D01*
X465625Y669366D01*
X467634Y671375D01*
X469055Y673835D01*
X469790Y676580D01*
Y676730D01*
D02*
G37*
G36*
X457730D02*
X448210D01*
Y676580D01*
X448945Y673835D01*
X450366Y671375D01*
X452375Y669366D01*
X454835Y667945D01*
X457579Y667210D01*
X457730D01*
Y676730D01*
D02*
G37*
G36*
X762319Y683500D02*
X760081D01*
X757919Y682921D01*
X755981Y681802D01*
X754398Y680219D01*
X753279Y678281D01*
X752700Y676119D01*
Y673881D01*
X753279Y671719D01*
X754398Y669781D01*
X755981Y668198D01*
X757919Y667079D01*
X760081Y666500D01*
X762319D01*
X764481Y667079D01*
X766419Y668198D01*
X768002Y669781D01*
X769121Y671719D01*
X769700Y673881D01*
Y676119D01*
X769121Y678281D01*
X768002Y680219D01*
X766419Y681802D01*
X764481Y682921D01*
X762319Y683500D01*
D02*
G37*
G36*
X536615Y663750D02*
X533785D01*
X531051Y663017D01*
X528599Y661602D01*
X526598Y659601D01*
X525183Y657149D01*
X524450Y654415D01*
Y651585D01*
X525183Y648851D01*
X526598Y646399D01*
X528599Y644398D01*
X531051Y642983D01*
X533785Y642250D01*
X536615D01*
X539349Y642983D01*
X541801Y644398D01*
X543802Y646399D01*
X545217Y648851D01*
X545950Y651585D01*
Y654415D01*
X545217Y657149D01*
X543802Y659601D01*
X541801Y661602D01*
X539349Y663017D01*
X536615Y663750D01*
D02*
G37*
G36*
X460415D02*
X457585D01*
X454851Y663017D01*
X452399Y661602D01*
X450398Y659601D01*
X448983Y657149D01*
X448250Y654415D01*
Y651585D01*
X448983Y648851D01*
X450398Y646399D01*
X452399Y644398D01*
X454851Y642983D01*
X457585Y642250D01*
X460415D01*
X463149Y642983D01*
X465601Y644398D01*
X467602Y646399D01*
X469017Y648851D01*
X469750Y651585D01*
Y654415D01*
X469017Y657149D01*
X467602Y659601D01*
X465601Y661602D01*
X463149Y663017D01*
X460415Y663750D01*
D02*
G37*
G36*
X762319Y658100D02*
X760081D01*
X757919Y657521D01*
X755981Y656402D01*
X754398Y654819D01*
X753279Y652881D01*
X752700Y650719D01*
Y648481D01*
X753279Y646319D01*
X754398Y644381D01*
X755981Y642798D01*
X757919Y641679D01*
X760081Y641100D01*
X762319D01*
X764481Y641679D01*
X766419Y642798D01*
X768002Y644381D01*
X769121Y646319D01*
X769700Y648481D01*
Y650719D01*
X769121Y652881D01*
X768002Y654819D01*
X766419Y656402D01*
X764481Y657521D01*
X762319Y658100D01*
D02*
G37*
G36*
X536615Y638750D02*
X533785D01*
X531051Y638017D01*
X528599Y636602D01*
X526598Y634601D01*
X525183Y632149D01*
X524450Y629415D01*
Y626585D01*
X525183Y623851D01*
X526598Y621399D01*
X528599Y619398D01*
X531051Y617983D01*
X533785Y617250D01*
X536615D01*
X539349Y617983D01*
X541801Y619398D01*
X543802Y621399D01*
X545217Y623851D01*
X545950Y626585D01*
Y629415D01*
X545217Y632149D01*
X543802Y634601D01*
X541801Y636602D01*
X539349Y638017D01*
X536615Y638750D01*
D02*
G37*
G36*
X460415D02*
X457585D01*
X454851Y638017D01*
X452399Y636602D01*
X450398Y634601D01*
X448983Y632149D01*
X448250Y629415D01*
Y626585D01*
X448983Y623851D01*
X450398Y621399D01*
X452399Y619398D01*
X454851Y617983D01*
X457585Y617250D01*
X460415D01*
X463149Y617983D01*
X465601Y619398D01*
X467602Y621399D01*
X469017Y623851D01*
X469750Y626585D01*
Y629415D01*
X469017Y632149D01*
X467602Y634601D01*
X465601Y636602D01*
X463149Y638017D01*
X460415Y638750D01*
D02*
G37*
G36*
X762319Y632700D02*
X760081D01*
X757919Y632121D01*
X755981Y631002D01*
X754398Y629419D01*
X753279Y627481D01*
X752700Y625319D01*
Y623081D01*
X753279Y620919D01*
X754398Y618981D01*
X755981Y617398D01*
X757919Y616279D01*
X760081Y615700D01*
X762319D01*
X764481Y616279D01*
X766419Y617398D01*
X768002Y618981D01*
X769121Y620919D01*
X769700Y623081D01*
Y625319D01*
X769121Y627481D01*
X768002Y629419D01*
X766419Y631002D01*
X764481Y632121D01*
X762319Y632700D01*
D02*
G37*
G36*
X357388Y615540D02*
X357270D01*
Y606270D01*
X366540D01*
Y606388D01*
X365822Y609068D01*
X364434Y611472D01*
X362472Y613434D01*
X360068Y614822D01*
X357388Y615540D01*
D02*
G37*
G36*
X354730D02*
X354612D01*
X351932Y614822D01*
X349528Y613434D01*
X347566Y611472D01*
X346178Y609068D01*
X345460Y606388D01*
Y606270D01*
X354730D01*
Y615540D01*
D02*
G37*
G36*
X284810Y628750D02*
X281190D01*
X277693Y627813D01*
X274557Y626003D01*
X271997Y623443D01*
X270187Y620307D01*
X269250Y616810D01*
Y613190D01*
X270187Y609693D01*
X271997Y606557D01*
X274557Y603997D01*
X277693Y602187D01*
X281190Y601250D01*
X284810D01*
X288307Y602187D01*
X291443Y603997D01*
X294003Y606557D01*
X294510Y607435D01*
X315243D01*
X319661Y603018D01*
X320216Y600947D01*
X321598Y598553D01*
X323553Y596598D01*
X325947Y595216D01*
X328618Y594500D01*
X331382D01*
X334053Y595216D01*
X336447Y596598D01*
X338402Y598553D01*
X339784Y600947D01*
X340500Y603618D01*
Y606382D01*
X339784Y609053D01*
X338402Y611447D01*
X336447Y613402D01*
X334053Y614784D01*
X331382Y615500D01*
X328618D01*
X328584Y615491D01*
X323726Y620349D01*
X322159Y621551D01*
X320334Y622307D01*
X318376Y622565D01*
X294510D01*
X294003Y623443D01*
X291443Y626003D01*
X288307Y627813D01*
X284810Y628750D01*
D02*
G37*
G36*
X366540Y603730D02*
X357270D01*
Y594460D01*
X357388D01*
X360068Y595178D01*
X362472Y596566D01*
X364434Y598528D01*
X365822Y600932D01*
X366540Y603612D01*
Y603730D01*
D02*
G37*
G36*
X354730D02*
X345460D01*
Y603612D01*
X346178Y600932D01*
X347566Y598528D01*
X349528Y596566D01*
X351932Y595178D01*
X354612Y594460D01*
X354730D01*
Y603730D01*
D02*
G37*
G36*
X536615Y613750D02*
X533785D01*
X531051Y613017D01*
X528599Y611602D01*
X526598Y609601D01*
X525183Y607149D01*
X524450Y604415D01*
Y601585D01*
X525183Y598851D01*
X526598Y596399D01*
X528599Y594398D01*
X531051Y592983D01*
X533785Y592250D01*
X536615D01*
X539349Y592983D01*
X541801Y594398D01*
X543802Y596399D01*
X545217Y598851D01*
X545950Y601585D01*
Y604415D01*
X545217Y607149D01*
X543802Y609601D01*
X541801Y611602D01*
X539349Y613017D01*
X536615Y613750D01*
D02*
G37*
G36*
X460415D02*
X457585D01*
X454851Y613017D01*
X452399Y611602D01*
X450398Y609601D01*
X448983Y607149D01*
X448250Y604415D01*
Y601585D01*
X448983Y598851D01*
X450398Y596399D01*
X452399Y594398D01*
X454851Y592983D01*
X457585Y592250D01*
X460415D01*
X463149Y592983D01*
X465601Y594398D01*
X467602Y596399D01*
X469017Y598851D01*
X469750Y601585D01*
Y604415D01*
X469017Y607149D01*
X467602Y609601D01*
X465601Y611602D01*
X463149Y613017D01*
X460415Y613750D01*
D02*
G37*
G36*
X762319Y607300D02*
X760081D01*
X757919Y606721D01*
X755981Y605602D01*
X754398Y604019D01*
X753279Y602081D01*
X752700Y599919D01*
Y597681D01*
X753279Y595519D01*
X754398Y593581D01*
X755981Y591998D01*
X757919Y590879D01*
X760081Y590300D01*
X762319D01*
X764481Y590879D01*
X766419Y591998D01*
X768002Y593581D01*
X769121Y595519D01*
X769700Y597681D01*
Y599919D01*
X769121Y602081D01*
X768002Y604019D01*
X766419Y605602D01*
X764481Y606721D01*
X762319Y607300D01*
D02*
G37*
G36*
X686119D02*
X683881D01*
X681719Y606721D01*
X679781Y605602D01*
X678198Y604019D01*
X677079Y602081D01*
X676500Y599919D01*
Y597681D01*
X677079Y595519D01*
X678198Y593581D01*
X679781Y591998D01*
X681719Y590879D01*
X683881Y590300D01*
X686119D01*
X688281Y590879D01*
X690219Y591998D01*
X691802Y593581D01*
X692921Y595519D01*
X693500Y597681D01*
Y599919D01*
X692921Y602081D01*
X691802Y604019D01*
X690219Y605602D01*
X688281Y606721D01*
X686119Y607300D01*
D02*
G37*
G36*
X545950Y588750D02*
X524450D01*
Y567250D01*
X545950D01*
Y588750D01*
D02*
G37*
G36*
X469750D02*
X448250D01*
Y567250D01*
X469750D01*
Y588750D01*
D02*
G37*
G36*
X762319Y581900D02*
X760081D01*
X757919Y581321D01*
X755981Y580202D01*
X754398Y578619D01*
X753279Y576681D01*
X752700Y574519D01*
Y572281D01*
X753279Y570119D01*
X754398Y568181D01*
X755981Y566598D01*
X757919Y565479D01*
X760081Y564900D01*
X762319D01*
X764481Y565479D01*
X766419Y566598D01*
X768002Y568181D01*
X769121Y570119D01*
X769700Y572281D01*
Y574519D01*
X769121Y576681D01*
X768002Y578619D01*
X766419Y580202D01*
X764481Y581321D01*
X762319Y581900D01*
D02*
G37*
G36*
X686119D02*
X683881D01*
X681719Y581321D01*
X679781Y580202D01*
X678198Y578619D01*
X677079Y576681D01*
X676500Y574519D01*
Y572281D01*
X677079Y570119D01*
X678198Y568181D01*
X679781Y566598D01*
X681719Y565479D01*
X683881Y564900D01*
X686119D01*
X688281Y565479D01*
X690219Y566598D01*
X691802Y568181D01*
X692921Y570119D01*
X693500Y572281D01*
Y574519D01*
X692921Y576681D01*
X691802Y578619D01*
X690219Y580202D01*
X688281Y581321D01*
X686119Y581900D01*
D02*
G37*
G36*
X686270Y556501D02*
Y549270D01*
X693501D01*
X692958Y551296D01*
X691834Y553244D01*
X690244Y554834D01*
X688296Y555958D01*
X686270Y556501D01*
D02*
G37*
G36*
X683730D02*
X681704Y555958D01*
X679756Y554834D01*
X678166Y553244D01*
X677042Y551296D01*
X676499Y549270D01*
X683730D01*
Y556501D01*
D02*
G37*
G36*
X762319Y556500D02*
X760081D01*
X757919Y555921D01*
X755981Y554802D01*
X754398Y553219D01*
X753279Y551281D01*
X752700Y549119D01*
Y546881D01*
X753279Y544719D01*
X754398Y542781D01*
X755981Y541198D01*
X757919Y540079D01*
X760081Y539500D01*
X762319D01*
X764481Y540079D01*
X766419Y541198D01*
X768002Y542781D01*
X769121Y544719D01*
X769700Y546881D01*
Y549119D01*
X769121Y551281D01*
X768002Y553219D01*
X766419Y554802D01*
X764481Y555921D01*
X762319Y556500D01*
D02*
G37*
G36*
X693501Y546730D02*
X686270D01*
Y539499D01*
X688296Y540042D01*
X690244Y541166D01*
X691834Y542756D01*
X692958Y544704D01*
X693501Y546730D01*
D02*
G37*
G36*
X683730D02*
X676499D01*
X677042Y544704D01*
X678166Y542756D01*
X679756Y541166D01*
X681704Y540042D01*
X683730Y539499D01*
Y546730D01*
D02*
G37*
G36*
X636532Y500620D02*
X633868D01*
X631294Y499930D01*
X628986Y498598D01*
X627102Y496714D01*
X625770Y494406D01*
X625080Y491832D01*
Y489168D01*
X625770Y486594D01*
X627102Y484286D01*
X628986Y482402D01*
X631294Y481070D01*
X633868Y480380D01*
X636532D01*
X639106Y481070D01*
X641414Y482402D01*
X643298Y484286D01*
X644630Y486594D01*
X645320Y489168D01*
Y491832D01*
X644630Y494406D01*
X643298Y496714D01*
X641414Y498598D01*
X639106Y499930D01*
X636532Y500620D01*
D02*
G37*
G36*
X382382Y615500D02*
X379618D01*
X376947Y614784D01*
X374553Y613402D01*
X372598Y611447D01*
X371216Y609053D01*
X370500Y606382D01*
Y603618D01*
X371216Y600947D01*
X372598Y598553D01*
X374553Y596598D01*
X376947Y595216D01*
X379618Y594500D01*
X380802D01*
X430343Y544958D01*
X430344Y544958D01*
X431910Y543756D01*
X433735Y543000D01*
X435693Y542743D01*
X435693Y542743D01*
X492042D01*
X531770Y503015D01*
X530975Y500274D01*
X529694Y499930D01*
X527386Y498598D01*
X525502Y496714D01*
X524170Y494406D01*
X523480Y491832D01*
Y489168D01*
X524170Y486594D01*
X525502Y484286D01*
X527386Y482402D01*
X529694Y481070D01*
X532268Y480380D01*
X534932D01*
X537506Y481070D01*
X538655Y481733D01*
X541155Y480356D01*
Y475244D01*
X538655Y473867D01*
X537506Y474530D01*
X534932Y475220D01*
X532268D01*
X529694Y474530D01*
X529620Y474487D01*
X510904Y493204D01*
X509663Y494032D01*
X508200Y494323D01*
X491562D01*
X490402Y496333D01*
X488633Y498102D01*
X486467Y499353D01*
X484051Y500000D01*
X481549D01*
X479133Y499353D01*
X476967Y498102D01*
X475198Y496333D01*
X473947Y494167D01*
X473300Y491751D01*
Y489249D01*
X473947Y486833D01*
X475198Y484667D01*
X476967Y482898D01*
X479133Y481647D01*
X481549Y481000D01*
X484051D01*
X486467Y481647D01*
X488633Y482898D01*
X490402Y484667D01*
X491562Y486677D01*
X506616D01*
X524212Y469080D01*
X524170Y469006D01*
X523480Y466432D01*
Y463768D01*
X524170Y461194D01*
X525502Y458886D01*
X527386Y457002D01*
X529694Y455670D01*
X532268Y454980D01*
X534932D01*
X537506Y455670D01*
X538655Y456333D01*
X541155Y454956D01*
Y449908D01*
X538655Y448513D01*
X537522Y449168D01*
X534938Y449860D01*
X534870D01*
Y439700D01*
X533600D01*
Y438430D01*
X523440D01*
Y438362D01*
X524132Y435778D01*
X525470Y433462D01*
X527362Y431570D01*
X529678Y430232D01*
X532262Y429540D01*
X533188D01*
X534224Y427040D01*
X531361Y424177D01*
X529694Y423730D01*
X527386Y422398D01*
X525502Y420514D01*
X524170Y418206D01*
X523480Y415632D01*
Y412968D01*
X524170Y410394D01*
X525502Y408086D01*
X527386Y406202D01*
X529694Y404870D01*
X532268Y404180D01*
X534932D01*
X537506Y404870D01*
X539814Y406202D01*
X541698Y408086D01*
X543030Y410394D01*
X543720Y412968D01*
Y415140D01*
X554069Y425489D01*
X554069Y425489D01*
X555271Y427056D01*
X556027Y428880D01*
X556285Y430838D01*
Y496763D01*
X556285Y496763D01*
X556027Y498721D01*
X555271Y500545D01*
X554069Y502112D01*
X554069Y502112D01*
X500525Y555657D01*
X498958Y556859D01*
X497133Y557614D01*
X495176Y557872D01*
X438826D01*
X391500Y605198D01*
Y606382D01*
X390784Y609053D01*
X389402Y611447D01*
X387447Y613402D01*
X385053Y614784D01*
X382382Y615500D01*
D02*
G37*
G36*
X484070Y475036D02*
Y466770D01*
X492336D01*
X491690Y469182D01*
X490434Y471358D01*
X488658Y473134D01*
X486482Y474390D01*
X484070Y475036D01*
D02*
G37*
G36*
X481530D02*
X479118Y474390D01*
X476942Y473134D01*
X475166Y471358D01*
X473910Y469182D01*
X473264Y466770D01*
X481530D01*
Y475036D01*
D02*
G37*
G36*
X750838Y475260D02*
X750770D01*
Y466370D01*
X759660D01*
Y466438D01*
X758968Y469022D01*
X757630Y471338D01*
X755738Y473230D01*
X753422Y474568D01*
X750838Y475260D01*
D02*
G37*
G36*
X748230D02*
X748162D01*
X745578Y474568D01*
X743262Y473230D01*
X741370Y471338D01*
X740032Y469022D01*
X739340Y466438D01*
Y466370D01*
X748230D01*
Y475260D01*
D02*
G37*
G36*
X286810Y513750D02*
X283190D01*
X279693Y512813D01*
X276557Y511003D01*
X273997Y508443D01*
X272187Y505307D01*
X271250Y501810D01*
Y498190D01*
X272187Y494693D01*
X273997Y491557D01*
X276557Y488997D01*
X279693Y487187D01*
X280089Y487081D01*
X301085Y466085D01*
X301085Y466085D01*
X303696Y464081D01*
X306737Y462822D01*
X310000Y462392D01*
X310000Y462392D01*
X390400D01*
X393663Y462822D01*
X396704Y464081D01*
X397543Y464725D01*
X409875D01*
Y494475D01*
X380125D01*
Y487608D01*
X315222D01*
X297919Y504911D01*
X297813Y505307D01*
X296003Y508443D01*
X293443Y511003D01*
X290307Y512813D01*
X286810Y513750D01*
D02*
G37*
G36*
X492336Y464230D02*
X484070D01*
Y455964D01*
X486482Y456610D01*
X488658Y457866D01*
X490434Y459642D01*
X491690Y461818D01*
X492336Y464230D01*
D02*
G37*
G36*
X481530D02*
X473264D01*
X473910Y461818D01*
X475166Y459642D01*
X476942Y457866D01*
X479118Y456610D01*
X481530Y455964D01*
Y464230D01*
D02*
G37*
G36*
X686119Y708900D02*
X683881D01*
X681719Y708321D01*
X679781Y707202D01*
X678198Y705619D01*
X677079Y703681D01*
X676500Y701519D01*
Y699281D01*
X677079Y697119D01*
X678198Y695181D01*
X679781Y693598D01*
X681719Y692479D01*
X683881Y691900D01*
X686119D01*
X687676Y692317D01*
X720277Y659716D01*
Y474552D01*
X720194Y474530D01*
X717886Y473198D01*
X716002Y471314D01*
X714670Y469006D01*
X713980Y466432D01*
Y463768D01*
X714670Y461194D01*
X716002Y458886D01*
X717886Y457002D01*
X720194Y455670D01*
X722768Y454980D01*
X725432D01*
X728006Y455670D01*
X730314Y457002D01*
X732198Y458886D01*
X733530Y461194D01*
X734220Y463768D01*
Y466432D01*
X733530Y469006D01*
X732198Y471314D01*
X730314Y473198D01*
X728006Y474530D01*
X727923Y474552D01*
Y661300D01*
X727632Y662763D01*
X726804Y664004D01*
X693083Y697724D01*
X693500Y699281D01*
Y701519D01*
X692921Y703681D01*
X691802Y705619D01*
X690219Y707202D01*
X688281Y708321D01*
X686119Y708900D01*
D02*
G37*
G36*
X759660Y463830D02*
X750770D01*
Y454940D01*
X750838D01*
X753422Y455632D01*
X755738Y456970D01*
X757630Y458862D01*
X758968Y461178D01*
X759660Y463762D01*
Y463830D01*
D02*
G37*
G36*
X748230D02*
X739340D01*
Y463762D01*
X740032Y461178D01*
X741370Y458862D01*
X743262Y456970D01*
X745578Y455632D01*
X748162Y454940D01*
X748230D01*
Y463830D01*
D02*
G37*
G36*
X750838Y449860D02*
X750770D01*
Y440970D01*
X759660D01*
Y441038D01*
X758968Y443622D01*
X757630Y445938D01*
X755738Y447830D01*
X753422Y449168D01*
X750838Y449860D01*
D02*
G37*
G36*
X748230D02*
X748162D01*
X745578Y449168D01*
X743262Y447830D01*
X741370Y445938D01*
X740032Y443622D01*
X739340Y441038D01*
Y440970D01*
X748230D01*
Y449860D01*
D02*
G37*
G36*
X532330D02*
X532262D01*
X529678Y449168D01*
X527362Y447830D01*
X525470Y445938D01*
X524132Y443622D01*
X523440Y441038D01*
Y440970D01*
X532330D01*
Y449860D01*
D02*
G37*
G36*
X238890Y436690D02*
X231270D01*
Y431670D01*
X238890D01*
Y436690D01*
D02*
G37*
G36*
X228730D02*
X221110D01*
Y431670D01*
X228730D01*
Y436690D01*
D02*
G37*
G36*
X759660Y438430D02*
X750770D01*
Y429540D01*
X750838D01*
X753422Y430232D01*
X755738Y431570D01*
X757630Y433462D01*
X758968Y435778D01*
X759660Y438362D01*
Y438430D01*
D02*
G37*
G36*
X748230D02*
X739340D01*
Y438362D01*
X740032Y435778D01*
X741370Y433462D01*
X743262Y431570D01*
X745578Y430232D01*
X748162Y429540D01*
X748230D01*
Y438430D01*
D02*
G37*
G36*
X633930D02*
X625040D01*
Y438362D01*
X625732Y435778D01*
X627070Y433462D01*
X628962Y431570D01*
X631278Y430232D01*
X633862Y429540D01*
X633930D01*
Y438430D01*
D02*
G37*
G36*
X320000Y456608D02*
X316737Y456178D01*
X313696Y454919D01*
X311085Y452915D01*
X311085Y452915D01*
X301178Y443008D01*
X283400D01*
X280137Y442578D01*
X277096Y441319D01*
X274485Y439315D01*
X272481Y436704D01*
X271222Y433663D01*
X271187Y433400D01*
X242050D01*
Y389300D01*
X271187D01*
X271222Y389037D01*
X272481Y385996D01*
X274485Y383385D01*
X277096Y381381D01*
X280137Y380122D01*
X283400Y379692D01*
X286663Y380122D01*
X289704Y381381D01*
X292315Y383385D01*
X294319Y385996D01*
X295578Y389037D01*
X296008Y392300D01*
Y402178D01*
X315315Y421485D01*
X325222Y431392D01*
X348959D01*
X349266Y431085D01*
X349266Y431085D01*
X351877Y429081D01*
X354918Y427822D01*
X358181Y427392D01*
X387095D01*
X387954Y426818D01*
X390661Y425697D01*
X393535Y425125D01*
X396465D01*
X399339Y425697D01*
X402046Y426818D01*
X404482Y428446D01*
X406554Y430518D01*
X408182Y432954D01*
X409303Y435661D01*
X409875Y438535D01*
Y441465D01*
X409303Y444339D01*
X408182Y447046D01*
X406554Y449482D01*
X404482Y451554D01*
X402046Y453182D01*
X399339Y454303D01*
X396465Y454875D01*
X393535D01*
X390661Y454303D01*
X387954Y453182D01*
X387095Y452608D01*
X363403D01*
X363096Y452915D01*
X360485Y454919D01*
X357444Y456178D01*
X354181Y456608D01*
X320000D01*
X320000Y456608D01*
D02*
G37*
G36*
X238890Y429130D02*
X221110D01*
Y426490D01*
X221110Y424110D01*
X221110Y421610D01*
Y418970D01*
X238890D01*
Y421610D01*
X238890Y423990D01*
X238890Y426490D01*
Y429130D01*
D02*
G37*
G36*
X484070Y425036D02*
Y416770D01*
X492336D01*
X491690Y419182D01*
X490434Y421358D01*
X488658Y423134D01*
X486482Y424390D01*
X484070Y425036D01*
D02*
G37*
G36*
X481530D02*
X479118Y424390D01*
X476942Y423134D01*
X475166Y421358D01*
X473910Y419182D01*
X473264Y416770D01*
X481530D01*
Y425036D01*
D02*
G37*
G36*
X750838Y424460D02*
X750770D01*
Y415570D01*
X759660D01*
Y415638D01*
X758968Y418222D01*
X757630Y420538D01*
X755738Y422430D01*
X753422Y423768D01*
X750838Y424460D01*
D02*
G37*
G36*
X748230D02*
X748162D01*
X745578Y423768D01*
X743262Y422430D01*
X741370Y420538D01*
X740032Y418222D01*
X739340Y415638D01*
Y415570D01*
X748230D01*
Y424460D01*
D02*
G37*
G36*
X106750Y422490D02*
X106270D01*
Y410470D01*
X118290D01*
Y410950D01*
X117384Y414330D01*
X115635Y417360D01*
X113160Y419835D01*
X110130Y421584D01*
X106750Y422490D01*
D02*
G37*
G36*
X103730D02*
X103250D01*
X99870Y421584D01*
X96840Y419835D01*
X94365Y417360D01*
X92616Y414330D01*
X91710Y410950D01*
Y410470D01*
X103730D01*
Y422490D01*
D02*
G37*
G36*
X208730Y412540D02*
X201210D01*
Y406270D01*
X208730D01*
Y412540D01*
D02*
G37*
G36*
X492336Y414230D02*
X484070D01*
Y405964D01*
X486482Y406610D01*
X488658Y407866D01*
X490434Y409642D01*
X491690Y411818D01*
X492336Y414230D01*
D02*
G37*
G36*
X481530D02*
X473264D01*
X473910Y411818D01*
X475166Y409642D01*
X476942Y407866D01*
X479118Y406610D01*
X481530Y405964D01*
Y414230D01*
D02*
G37*
G36*
X725432Y424420D02*
X722768D01*
X720194Y423730D01*
X717886Y422398D01*
X716002Y420514D01*
X714670Y418206D01*
X713980Y415632D01*
Y412968D01*
X714670Y410394D01*
X716002Y408086D01*
X717886Y406202D01*
X720194Y404870D01*
X722768Y404180D01*
X725432D01*
X728006Y404870D01*
X730314Y406202D01*
X732198Y408086D01*
X733530Y410394D01*
X734220Y412968D01*
Y415632D01*
X733530Y418206D01*
X732198Y420514D01*
X730314Y422398D01*
X728006Y423730D01*
X725432Y424420D01*
D02*
G37*
G36*
X759660Y413030D02*
X750770D01*
Y404140D01*
X750838D01*
X753422Y404832D01*
X755738Y406170D01*
X757630Y408062D01*
X758968Y410378D01*
X759660Y412962D01*
Y413030D01*
D02*
G37*
G36*
X748230D02*
X739340D01*
Y412962D01*
X740032Y410378D01*
X741370Y408062D01*
X743262Y406170D01*
X745578Y404832D01*
X748162Y404140D01*
X748230D01*
Y413030D01*
D02*
G37*
G36*
X118290Y407930D02*
X106270D01*
Y395910D01*
X106750D01*
X110130Y396816D01*
X113160Y398565D01*
X115635Y401040D01*
X117384Y404070D01*
X118290Y407450D01*
Y407930D01*
D02*
G37*
G36*
X58810Y628750D02*
X55190D01*
X51693Y627813D01*
X48557Y626003D01*
X45997Y623443D01*
X44187Y620307D01*
X43250Y616810D01*
Y613190D01*
X44187Y609693D01*
X44257Y609572D01*
X34901Y600217D01*
X33699Y598650D01*
X32943Y596825D01*
X32685Y594868D01*
Y319750D01*
X32943Y317792D01*
X33699Y315968D01*
X34901Y314401D01*
X87415Y261887D01*
Y255000D01*
Y215400D01*
X87753Y211969D01*
X88479Y209577D01*
X77151Y198249D01*
X75949Y196682D01*
X75193Y194858D01*
X74935Y192900D01*
Y126593D01*
X75193Y124635D01*
X75949Y122811D01*
X77151Y121244D01*
X153744Y44651D01*
X155311Y43449D01*
X157135Y42693D01*
X159093Y42435D01*
X260000D01*
X261958Y42693D01*
X263782Y43449D01*
X264731Y44177D01*
X268190Y43250D01*
X271810D01*
X275307Y44187D01*
X278443Y45997D01*
X281003Y48557D01*
X282813Y51693D01*
X283750Y55190D01*
Y58810D01*
X282813Y62307D01*
X281003Y65443D01*
X278443Y68003D01*
X275307Y69813D01*
X271810Y70750D01*
X268190D01*
X264693Y69813D01*
X261557Y68003D01*
X258997Y65443D01*
X257187Y62307D01*
X256250Y58810D01*
Y57565D01*
X162227D01*
X99191Y120600D01*
X100148Y122910D01*
X103730D01*
Y136200D01*
Y149490D01*
X91710D01*
X90065Y151308D01*
Y170532D01*
X92565Y170861D01*
X92616Y170670D01*
X94365Y167640D01*
X96840Y165165D01*
X99870Y163416D01*
X103250Y162510D01*
X103730D01*
Y175800D01*
Y189090D01*
X103250D01*
X99870Y188184D01*
X96840Y186435D01*
X94365Y183960D01*
X92616Y180930D01*
X92565Y180739D01*
X90065Y181068D01*
Y189767D01*
X99177Y198879D01*
X101569Y198153D01*
X105000Y197815D01*
X108431Y198153D01*
X111729Y199154D01*
X114769Y200779D01*
X117434Y202966D01*
X119621Y205630D01*
X121246Y208671D01*
X122247Y211969D01*
X122585Y215400D01*
Y255000D01*
Y330000D01*
X122247Y333431D01*
X121246Y336729D01*
X119621Y339770D01*
X118250Y341440D01*
Y343250D01*
X116440D01*
X114769Y344621D01*
X111729Y346246D01*
X108431Y347247D01*
X105000Y347585D01*
X101569Y347247D01*
X98271Y346246D01*
X95231Y344621D01*
X93560Y343250D01*
X91750D01*
Y341440D01*
X90379Y339770D01*
X88754Y336729D01*
X87753Y333431D01*
X87415Y330000D01*
Y286549D01*
X85106Y285592D01*
X47815Y322883D01*
Y405537D01*
X49394Y406335D01*
X50315Y406455D01*
X93157Y363613D01*
X94397Y361464D01*
X96864Y358997D01*
X99886Y357253D01*
X103256Y356350D01*
X106744D01*
X110114Y357253D01*
X113136Y358997D01*
X115603Y361464D01*
X117347Y364486D01*
X118250Y367856D01*
Y371344D01*
X117347Y374714D01*
X115603Y377736D01*
X113136Y380203D01*
X110987Y381443D01*
X96631Y395799D01*
X98166Y397799D01*
X99870Y396816D01*
X103250Y395910D01*
X103730D01*
Y407930D01*
X91710D01*
Y407450D01*
X92616Y404070D01*
X93599Y402366D01*
X91599Y400831D01*
X71608Y420822D01*
Y494338D01*
X71813Y494693D01*
X72750Y498190D01*
Y501810D01*
X71813Y505307D01*
X70003Y508443D01*
X67443Y511003D01*
X64307Y512813D01*
X60810Y513750D01*
X57190D01*
X53693Y512813D01*
X50557Y511003D01*
X50315Y510760D01*
X47815Y511796D01*
Y591734D01*
X57331Y601250D01*
X58810D01*
X62307Y602187D01*
X65443Y603997D01*
X68003Y606557D01*
X69813Y609693D01*
X70750Y613190D01*
Y616810D01*
X69813Y620307D01*
X68003Y623443D01*
X65443Y626003D01*
X62307Y627813D01*
X58810Y628750D01*
D02*
G37*
G36*
X188540Y394040D02*
X181270D01*
Y386770D01*
X188540D01*
Y394040D01*
D02*
G37*
G36*
X178730D02*
X171460D01*
Y386770D01*
X178730D01*
Y394040D01*
D02*
G37*
G36*
X636532Y424420D02*
X633868D01*
X631294Y423730D01*
X628986Y422398D01*
X627102Y420514D01*
X625770Y418206D01*
X625080Y415632D01*
Y412968D01*
X625770Y410394D01*
X627102Y408086D01*
X628986Y406202D01*
X631294Y404870D01*
X633868Y404180D01*
X634622D01*
X637436Y401366D01*
X636801Y399718D01*
X636246Y399020D01*
X633868D01*
X631294Y398330D01*
X628986Y396998D01*
X627102Y395114D01*
X625770Y392806D01*
X625080Y390232D01*
Y387568D01*
X625770Y384994D01*
X627102Y382686D01*
X628986Y380802D01*
X631294Y379470D01*
X633868Y378780D01*
X636532D01*
X639106Y379470D01*
X639180Y379512D01*
X642763Y375930D01*
X641806Y373620D01*
X625080D01*
Y353380D01*
X639913D01*
X694666Y298626D01*
X695907Y297798D01*
X697370Y297507D01*
X716593D01*
X717138Y296618D01*
X717495Y295007D01*
X716002Y293514D01*
X714670Y291206D01*
X714648Y291123D01*
X694284D01*
X652704Y332704D01*
X651463Y333532D01*
X650000Y333823D01*
X265334D01*
X239000Y360157D01*
Y375250D01*
X222500D01*
X220000Y375250D01*
X217500Y375250D01*
X214323D01*
Y382500D01*
X218750D01*
Y385809D01*
X221150Y386050D01*
X221150Y386050D01*
X221150Y386050D01*
X238850D01*
Y396227D01*
X238890Y398710D01*
X238890Y401033D01*
Y403730D01*
X230000D01*
Y406270D01*
X238890D01*
Y408910D01*
X238890Y411290D01*
X238890Y413790D01*
Y416430D01*
X221110D01*
X221110Y412975D01*
X218790Y412540D01*
X218610Y412540D01*
X211270D01*
Y405000D01*
X210000D01*
Y403730D01*
X201210D01*
Y397460D01*
X201250D01*
Y382500D01*
X206677D01*
Y375250D01*
X201000D01*
Y354750D01*
X207677D01*
Y347700D01*
X205300D01*
Y332300D01*
X217700D01*
Y347700D01*
X215323D01*
Y352982D01*
X217091Y354750D01*
X220000Y354750D01*
X222500Y354750D01*
X233593D01*
X261046Y327296D01*
X262287Y326468D01*
X263750Y326177D01*
X648416D01*
X689996Y284596D01*
X691237Y283768D01*
X692700Y283477D01*
X714648D01*
X714670Y283394D01*
X716002Y281086D01*
X717886Y279202D01*
X720194Y277870D01*
X722768Y277180D01*
X725432D01*
X728006Y277870D01*
X730314Y279202D01*
X732198Y281086D01*
X733530Y283394D01*
X734220Y285968D01*
Y288632D01*
X733530Y291206D01*
X732198Y293514D01*
X730705Y295007D01*
X731062Y296618D01*
X731475Y297292D01*
X733938Y297455D01*
X740113Y291280D01*
X740070Y291206D01*
X739380Y288632D01*
Y285968D01*
X740070Y283394D01*
X741402Y281086D01*
X743286Y279202D01*
X745594Y277870D01*
X748168Y277180D01*
X750832D01*
X753406Y277870D01*
X755714Y279202D01*
X757598Y281086D01*
X758930Y283394D01*
X759620Y285968D01*
Y288632D01*
X758930Y291206D01*
X757598Y293514D01*
X755714Y295398D01*
X753406Y296730D01*
X750832Y297420D01*
X748168D01*
X745594Y296730D01*
X745520Y296688D01*
X738174Y304034D01*
X736933Y304862D01*
X735470Y305153D01*
X734255D01*
X732872Y307653D01*
X733530Y308794D01*
X734220Y311368D01*
Y314032D01*
X733530Y316606D01*
X732198Y318914D01*
X730705Y320407D01*
X731062Y322018D01*
X731607Y322907D01*
X738130D01*
X739593Y323198D01*
X740834Y324026D01*
X745520Y328713D01*
X745594Y328670D01*
X748168Y327980D01*
X750832D01*
X753406Y328670D01*
X755714Y330002D01*
X757598Y331886D01*
X758930Y334194D01*
X759620Y336768D01*
Y339432D01*
X758930Y342006D01*
X757598Y344314D01*
X755714Y346198D01*
X753406Y347530D01*
X750832Y348220D01*
X748168D01*
X745594Y347530D01*
X743286Y346198D01*
X741402Y344314D01*
X740070Y342006D01*
X739380Y339432D01*
Y336768D01*
X740070Y334194D01*
X740113Y334120D01*
X736576Y330583D01*
X734136Y330769D01*
X732872Y333053D01*
X733530Y334194D01*
X734220Y336768D01*
Y339432D01*
X733530Y342006D01*
X732198Y344314D01*
X730314Y346198D01*
X728006Y347530D01*
X725432Y348220D01*
X722768D01*
X721133Y347782D01*
X712416D01*
X645320Y414878D01*
Y415632D01*
X644630Y418206D01*
X643298Y420514D01*
X641414Y422398D01*
X639106Y423730D01*
X636532Y424420D01*
D02*
G37*
G36*
X750832Y399020D02*
X748168D01*
X745594Y398330D01*
X743286Y396998D01*
X741402Y395114D01*
X740070Y392806D01*
X739380Y390232D01*
Y387568D01*
X740070Y384994D01*
X741402Y382686D01*
X743286Y380802D01*
X745594Y379470D01*
X748168Y378780D01*
X750832D01*
X753406Y379470D01*
X755714Y380802D01*
X757598Y382686D01*
X758930Y384994D01*
X759620Y387568D01*
Y390232D01*
X758930Y392806D01*
X757598Y395114D01*
X755714Y396998D01*
X753406Y398330D01*
X750832Y399020D01*
D02*
G37*
G36*
X484051Y450000D02*
X481549D01*
X479133Y449353D01*
X476967Y448102D01*
X475198Y446333D01*
X473947Y444167D01*
X473300Y441751D01*
Y439249D01*
X473947Y436833D01*
X475198Y434667D01*
X476967Y432898D01*
X479133Y431647D01*
X481549Y431000D01*
X484051D01*
X485977Y431516D01*
X524359Y393134D01*
X524170Y392806D01*
X523480Y390232D01*
Y387568D01*
X524170Y384994D01*
X525502Y382686D01*
X527386Y380802D01*
X529694Y379470D01*
X532268Y378780D01*
X534932D01*
X537506Y379470D01*
X539814Y380802D01*
X541698Y382686D01*
X543030Y384994D01*
X543720Y387568D01*
Y390232D01*
X543030Y392806D01*
X541698Y395114D01*
X539814Y396998D01*
X537506Y398330D01*
X534932Y399020D01*
X532268D01*
X529917Y398390D01*
X491587Y436720D01*
X491653Y436833D01*
X492300Y439249D01*
Y441751D01*
X491653Y444167D01*
X490402Y446333D01*
X488633Y448102D01*
X486467Y449353D01*
X484051Y450000D01*
D02*
G37*
G36*
X188540Y384230D02*
X181270D01*
Y376960D01*
X188540D01*
Y384230D01*
D02*
G37*
G36*
X178730D02*
X171460D01*
Y376960D01*
X178730D01*
Y384230D01*
D02*
G37*
G36*
X492340Y375040D02*
X484070D01*
Y366770D01*
X492340D01*
Y375040D01*
D02*
G37*
G36*
X481530D02*
X473260D01*
Y366770D01*
X481530D01*
Y375040D01*
D02*
G37*
G36*
X492340Y364230D02*
X484070D01*
Y355960D01*
X492340D01*
Y364230D01*
D02*
G37*
G36*
X481530D02*
X473260D01*
Y355960D01*
X481530D01*
Y364230D01*
D02*
G37*
G36*
X750832Y373620D02*
X748168D01*
X745594Y372930D01*
X743286Y371598D01*
X741402Y369714D01*
X740070Y367406D01*
X739380Y364832D01*
Y362168D01*
X740070Y359594D01*
X741402Y357286D01*
X743286Y355402D01*
X745594Y354070D01*
X748168Y353380D01*
X750832D01*
X753406Y354070D01*
X755714Y355402D01*
X757598Y357286D01*
X758930Y359594D01*
X759620Y362168D01*
Y364832D01*
X758930Y367406D01*
X757598Y369714D01*
X755714Y371598D01*
X753406Y372930D01*
X750832Y373620D01*
D02*
G37*
G36*
X636532Y475220D02*
X633868D01*
X631294Y474530D01*
X628986Y473198D01*
X627102Y471314D01*
X625770Y469006D01*
X625080Y466432D01*
Y463768D01*
X625770Y461194D01*
X627102Y458886D01*
X628986Y457002D01*
X631294Y455670D01*
X633494Y455080D01*
Y453662D01*
X633761Y452318D01*
X633768Y452160D01*
X632605Y449523D01*
X631278Y449168D01*
X628962Y447830D01*
X627070Y445938D01*
X625732Y443622D01*
X625040Y441038D01*
Y440970D01*
X635200D01*
Y439700D01*
X636470D01*
Y429540D01*
X636538D01*
X639122Y430232D01*
X641438Y431570D01*
X643330Y433462D01*
X644668Y435778D01*
X645004Y437033D01*
X647762Y437810D01*
X715949Y369623D01*
X714670Y367406D01*
X713980Y364832D01*
Y362168D01*
X714670Y359594D01*
X716002Y357286D01*
X717886Y355402D01*
X720194Y354070D01*
X722768Y353380D01*
X725432D01*
X728006Y354070D01*
X730314Y355402D01*
X732198Y357286D01*
X733530Y359594D01*
X734220Y362168D01*
Y364832D01*
X733530Y367406D01*
X732198Y369714D01*
X730314Y371598D01*
X728006Y372930D01*
X725432Y373620D01*
X722768D01*
X722767Y373620D01*
X719973Y376413D01*
X720049Y376920D01*
X722768Y378780D01*
X725432D01*
X728006Y379470D01*
X730314Y380802D01*
X732198Y382686D01*
X733530Y384994D01*
X734220Y387568D01*
Y390232D01*
X733530Y392806D01*
X732198Y395114D01*
X730314Y396998D01*
X728006Y398330D01*
X725432Y399020D01*
X722768D01*
X720194Y398330D01*
X717886Y396998D01*
X716002Y395114D01*
X714670Y392806D01*
X713980Y390232D01*
Y387568D01*
X712120Y384849D01*
X711613Y384773D01*
X641787Y454600D01*
X641414Y457002D01*
X643298Y458886D01*
X644630Y461194D01*
X645320Y463768D01*
Y466432D01*
X644630Y469006D01*
X643298Y471314D01*
X641414Y473198D01*
X639106Y474530D01*
X636532Y475220D01*
D02*
G37*
G36*
X484051Y400000D02*
X481549D01*
X479133Y399353D01*
X476967Y398102D01*
X475198Y396333D01*
X473947Y394167D01*
X473300Y391751D01*
Y389249D01*
X473947Y386833D01*
X475198Y384667D01*
X476967Y382898D01*
X479133Y381647D01*
X481549Y381000D01*
X484051D01*
X486467Y381647D01*
X488633Y382898D01*
X490402Y384667D01*
X491562Y386677D01*
X505016D01*
X523480Y368213D01*
Y353380D01*
X543720D01*
Y373620D01*
X528887D01*
X509304Y393204D01*
X508063Y394032D01*
X506600Y394323D01*
X491562D01*
X490402Y396333D01*
X488633Y398102D01*
X486467Y399353D01*
X484051Y400000D01*
D02*
G37*
G36*
X188500Y373000D02*
X171500D01*
Y356000D01*
X174677D01*
Y347700D01*
X172300D01*
Y332300D01*
X184700D01*
Y347700D01*
X182323D01*
Y356000D01*
X188500D01*
Y373000D01*
D02*
G37*
G36*
X400790Y320040D02*
X390270D01*
Y314270D01*
X400790D01*
Y320040D01*
D02*
G37*
G36*
X387730D02*
X377210D01*
Y314270D01*
X387730D01*
Y320040D01*
D02*
G37*
G36*
X364370Y318290D02*
Y312470D01*
X372590D01*
Y318290D01*
X364370D01*
D02*
G37*
G36*
X341830D02*
X333610D01*
Y312470D01*
X341830D01*
Y318290D01*
D02*
G37*
G36*
X400790Y311730D02*
X390270D01*
Y305960D01*
X400790D01*
Y311730D01*
D02*
G37*
G36*
X387730D02*
X377210D01*
Y305960D01*
X387730D01*
Y311730D01*
D02*
G37*
G36*
X750832Y322820D02*
X748168D01*
X745594Y322130D01*
X743286Y320798D01*
X741402Y318914D01*
X740070Y316606D01*
X739380Y314032D01*
Y311368D01*
X740070Y308794D01*
X741402Y306486D01*
X743286Y304602D01*
X745594Y303270D01*
X748168Y302580D01*
X750832D01*
X753406Y303270D01*
X755714Y304602D01*
X757598Y306486D01*
X758930Y308794D01*
X759620Y311368D01*
Y314032D01*
X758930Y316606D01*
X757598Y318914D01*
X755714Y320798D01*
X753406Y322130D01*
X750832Y322820D01*
D02*
G37*
G36*
X353610Y318290D02*
X351110Y318290D01*
X344370D01*
Y311200D01*
X343100D01*
Y309930D01*
X333610D01*
Y304333D01*
X333610Y304110D01*
X333650Y301627D01*
Y297548D01*
X326667Y290565D01*
X281510D01*
X281003Y291443D01*
X278443Y294003D01*
X275307Y295813D01*
X271810Y296750D01*
X268190D01*
X264693Y295813D01*
X261557Y294003D01*
X258997Y291443D01*
X257187Y288307D01*
X256250Y284810D01*
Y281190D01*
X257187Y277693D01*
X258997Y274557D01*
X261557Y271997D01*
X264693Y270187D01*
X268190Y269250D01*
X271810D01*
X275307Y270187D01*
X278443Y271997D01*
X281003Y274557D01*
X281510Y275435D01*
X329800D01*
X331758Y275693D01*
X333582Y276449D01*
X335149Y277651D01*
X336500Y279002D01*
X339701Y278901D01*
X356951Y261651D01*
X358518Y260449D01*
X360342Y259693D01*
X361321Y259564D01*
X362300Y259435D01*
X362300Y259435D01*
X389000D01*
X390958Y259693D01*
X391699Y260000D01*
X400750D01*
Y274000D01*
X391699D01*
X390958Y274307D01*
X389000Y274565D01*
X365433D01*
X354748Y285250D01*
X355784Y287750D01*
X360522D01*
X361142Y287493D01*
X363100Y287235D01*
X377250D01*
Y283000D01*
X382551D01*
X383292Y282693D01*
X385250Y282435D01*
X439250D01*
Y271500D01*
X443435D01*
Y230750D01*
X434250D01*
Y227565D01*
X379550D01*
Y230750D01*
X358050D01*
Y219948D01*
X338051Y199949D01*
X336849Y198382D01*
X336093Y196558D01*
X335835Y194600D01*
Y131100D01*
X336093Y129142D01*
X336849Y127318D01*
X338051Y125751D01*
X358050Y105752D01*
Y94950D01*
X379550D01*
Y98135D01*
X434250D01*
Y94950D01*
X455750D01*
Y116450D01*
X434250D01*
Y113265D01*
X379550D01*
Y116450D01*
X368748D01*
X350965Y134233D01*
Y191467D01*
X355550Y196052D01*
X358050Y195016D01*
Y193585D01*
X358783Y190851D01*
X360198Y188399D01*
X362199Y186398D01*
X364651Y184983D01*
X367385Y184250D01*
X370215D01*
X372949Y184983D01*
X375401Y186398D01*
X377402Y188399D01*
X378817Y190851D01*
X378905Y191177D01*
X426446D01*
X436994Y180629D01*
X438126Y178993D01*
X436950Y177209D01*
X436366Y176625D01*
X434945Y174165D01*
X434210Y171420D01*
Y171270D01*
X445000D01*
Y170000D01*
X446270D01*
Y159210D01*
X446421D01*
X449165Y159945D01*
X451625Y161366D01*
X453634Y163375D01*
X455055Y165835D01*
X455507Y167521D01*
X458140Y168423D01*
X498871Y127692D01*
X498113Y126378D01*
X497375Y123625D01*
Y120775D01*
X498113Y118022D01*
X499538Y115553D01*
X501553Y113538D01*
X504022Y112113D01*
X506775Y111375D01*
X509625D01*
X512378Y112113D01*
X514847Y113538D01*
X516862Y115553D01*
X518287Y118022D01*
X519025Y120775D01*
Y123625D01*
X518287Y126378D01*
X516862Y128847D01*
X514847Y130862D01*
X512378Y132287D01*
X509625Y133025D01*
X506775D01*
X504865Y132513D01*
X501017Y136361D01*
X502552Y138361D01*
X504022Y137513D01*
X506775Y136775D01*
X509625D01*
X512378Y137513D01*
X514847Y138938D01*
X516862Y140953D01*
X518287Y143422D01*
X519025Y146175D01*
Y149025D01*
X518287Y151778D01*
X516862Y154247D01*
X514847Y156262D01*
X512378Y157687D01*
X509625Y158425D01*
X506775D01*
X504022Y157687D01*
X503704Y157504D01*
X463532Y197675D01*
X462292Y198503D01*
X460829Y198794D01*
X455112D01*
X455017Y199149D01*
X453602Y201601D01*
X451601Y203602D01*
X449149Y205017D01*
X446415Y205750D01*
X443585D01*
X440851Y205017D01*
X438399Y203602D01*
X436398Y201601D01*
X434983Y199149D01*
X434526Y197446D01*
X431905Y196532D01*
X430733Y197704D01*
X429493Y198532D01*
X428029Y198823D01*
X378905D01*
X378817Y199149D01*
X377402Y201601D01*
X375401Y203602D01*
X372949Y205017D01*
X370471Y205681D01*
X369915Y206544D01*
X369269Y208250D01*
X370014Y209250D01*
X379550D01*
Y212435D01*
X434250D01*
Y209250D01*
X455750D01*
Y220052D01*
X456349Y220651D01*
X456349Y220651D01*
X457551Y222218D01*
X458307Y224042D01*
X458565Y226000D01*
X458565Y226000D01*
Y271500D01*
X462750D01*
Y282435D01*
X475825D01*
X477783Y282693D01*
X479608Y283449D01*
X481174Y284651D01*
X488008Y291485D01*
X501406D01*
X501553Y291338D01*
X504022Y289913D01*
X506775Y289175D01*
X509625D01*
X512378Y289913D01*
X514847Y291338D01*
X516862Y293353D01*
X518287Y295822D01*
X519025Y298575D01*
Y301425D01*
X518287Y304178D01*
X516862Y306647D01*
X514847Y308662D01*
X512378Y310087D01*
X509625Y310825D01*
X506775D01*
X504022Y310087D01*
X501553Y308662D01*
X499538Y306647D01*
X499519Y306614D01*
X484875D01*
X484875Y306614D01*
X482917Y306357D01*
X481093Y305601D01*
X479526Y304399D01*
X479526Y304399D01*
X472692Y297565D01*
X462750D01*
Y308500D01*
X439250D01*
Y297565D01*
X388383D01*
X385799Y300149D01*
X384232Y301351D01*
X382408Y302107D01*
X380450Y302365D01*
X374367D01*
X372590Y304110D01*
X372590Y304865D01*
Y309930D01*
X363100D01*
Y311200D01*
X361830D01*
Y318290D01*
X355090D01*
X353610Y318290D01*
D02*
G37*
G36*
X634782Y321550D02*
X630537D01*
X626374Y320722D01*
X622452Y319097D01*
X618923Y316739D01*
X615921Y313737D01*
X613563Y310208D01*
X611938Y306286D01*
X611110Y302122D01*
Y297878D01*
X611938Y293714D01*
X613563Y289792D01*
X615921Y286263D01*
X618923Y283261D01*
X622452Y280903D01*
X626374Y279278D01*
X630537Y278450D01*
X634782D01*
X638946Y279278D01*
X642868Y280903D01*
X646397Y283261D01*
X649399Y286263D01*
X651757Y289792D01*
X653382Y293714D01*
X654210Y297878D01*
Y302122D01*
X653382Y306286D01*
X651757Y310208D01*
X649399Y313737D01*
X646397Y316739D01*
X642868Y319097D01*
X638946Y320722D01*
X634782Y321550D01*
D02*
G37*
G36*
X509630Y285465D02*
X509470D01*
Y275870D01*
X519065D01*
Y276030D01*
X518325Y278794D01*
X516894Y281271D01*
X514871Y283294D01*
X512394Y284725D01*
X509630Y285465D01*
D02*
G37*
G36*
X506930D02*
X506770D01*
X504006Y284725D01*
X501529Y283294D01*
X499506Y281271D01*
X498075Y278794D01*
X497335Y276030D01*
Y275870D01*
X506930D01*
Y285465D01*
D02*
G37*
G36*
X519065Y273330D02*
X509470D01*
Y263735D01*
X509630D01*
X512394Y264475D01*
X514871Y265906D01*
X516894Y267929D01*
X518325Y270406D01*
X519065Y273170D01*
Y273330D01*
D02*
G37*
G36*
X506930D02*
X497335D01*
Y273170D01*
X498075Y270406D01*
X499506Y267929D01*
X501529Y265906D01*
X504006Y264475D01*
X506770Y263735D01*
X506930D01*
Y273330D01*
D02*
G37*
G36*
X725432Y272020D02*
X722768D01*
X720194Y271330D01*
X717886Y269998D01*
X716002Y268114D01*
X714670Y265806D01*
X713980Y263232D01*
Y260568D01*
X714670Y257994D01*
X714713Y257920D01*
X709816Y253023D01*
X518382D01*
X518287Y253378D01*
X516862Y255847D01*
X514847Y257862D01*
X512378Y259287D01*
X509625Y260025D01*
X506775D01*
X504022Y259287D01*
X501553Y257862D01*
X499538Y255847D01*
X498113Y253378D01*
X497375Y250625D01*
Y247775D01*
X498113Y245022D01*
X499538Y242553D01*
X501553Y240538D01*
X504022Y239113D01*
X506775Y238375D01*
X509625D01*
X512378Y239113D01*
X514847Y240538D01*
X516862Y242553D01*
X518287Y245022D01*
X518382Y245377D01*
X711400D01*
X712863Y245668D01*
X714104Y246496D01*
X720120Y252512D01*
X720194Y252470D01*
X722768Y251780D01*
X725432D01*
X728006Y252470D01*
X730314Y253802D01*
X732198Y255686D01*
X733530Y257994D01*
X734220Y260568D01*
Y263232D01*
X733530Y265806D01*
X732198Y268114D01*
X730314Y269998D01*
X728006Y271330D01*
X725432Y272020D01*
D02*
G37*
G36*
X750832D02*
X748168D01*
X745594Y271330D01*
X743286Y269998D01*
X741402Y268114D01*
X740070Y265806D01*
X739380Y263232D01*
Y260568D01*
X740070Y257994D01*
X740113Y257920D01*
X735232Y253039D01*
X734404Y251799D01*
X734112Y250336D01*
Y244156D01*
X734044Y244105D01*
X731612Y243299D01*
X730314Y244598D01*
X728006Y245930D01*
X725432Y246620D01*
X722768D01*
X720194Y245930D01*
X717886Y244598D01*
X716002Y242714D01*
X714670Y240406D01*
X713980Y237832D01*
Y235168D01*
X714670Y232594D01*
X716002Y230286D01*
X716165Y230123D01*
X715129Y227623D01*
X518382D01*
X518287Y227978D01*
X516862Y230447D01*
X514847Y232462D01*
X512378Y233887D01*
X509625Y234625D01*
X506775D01*
X504022Y233887D01*
X501553Y232462D01*
X499538Y230447D01*
X498113Y227978D01*
X497375Y225225D01*
Y222375D01*
X498113Y219622D01*
X499538Y217153D01*
X501553Y215138D01*
X504022Y213713D01*
X506775Y212975D01*
X509625D01*
X512378Y213713D01*
X514847Y215138D01*
X516862Y217153D01*
X518287Y219622D01*
X518382Y219977D01*
X715129D01*
X716165Y217477D01*
X716002Y217314D01*
X714670Y215006D01*
X713980Y212432D01*
Y209768D01*
X714670Y207194D01*
X716002Y204886D01*
X717768Y203120D01*
X717827Y202195D01*
X717517Y200328D01*
X716687Y199774D01*
X693737Y176823D01*
X518382D01*
X518287Y177178D01*
X516862Y179647D01*
X514847Y181662D01*
X512378Y183087D01*
X509625Y183825D01*
X506775D01*
X504022Y183087D01*
X501553Y181662D01*
X499538Y179647D01*
X498113Y177178D01*
X497375Y174425D01*
Y171575D01*
X498113Y168822D01*
X499538Y166353D01*
X501553Y164338D01*
X504022Y162913D01*
X506775Y162175D01*
X509625D01*
X512378Y162913D01*
X514847Y164338D01*
X516862Y166353D01*
X518287Y168822D01*
X518382Y169177D01*
X695320D01*
X696784Y169468D01*
X698024Y170296D01*
X711583Y183855D01*
X714329Y183066D01*
X714670Y181794D01*
X716002Y179486D01*
X717886Y177602D01*
X720194Y176270D01*
X722768Y175580D01*
X725432D01*
X728006Y176270D01*
X730314Y177602D01*
X732198Y179486D01*
X733530Y181794D01*
X734220Y184368D01*
Y187032D01*
X733530Y189606D01*
X732198Y191914D01*
X730314Y193798D01*
X730078Y195591D01*
X738829Y204342D01*
X740250Y204643D01*
X741975Y204313D01*
X743286Y203002D01*
X745594Y201670D01*
X748168Y200980D01*
X750832D01*
X753406Y201670D01*
X755714Y203002D01*
X757598Y204886D01*
X758930Y207194D01*
X759620Y209768D01*
Y212432D01*
X758930Y215006D01*
X757598Y217314D01*
X755714Y219198D01*
X753406Y220530D01*
X750832Y221220D01*
X748168D01*
X745594Y220530D01*
X743286Y219198D01*
X743047Y218959D01*
X740843Y219839D01*
X740594Y222187D01*
X745520Y227113D01*
X745594Y227070D01*
X748168Y226380D01*
X750832D01*
X753406Y227070D01*
X755714Y228402D01*
X757598Y230286D01*
X758930Y232594D01*
X759620Y235168D01*
Y237832D01*
X758930Y240406D01*
X757598Y242714D01*
X755714Y244598D01*
X753406Y245930D01*
X750832Y246620D01*
X748168D01*
X745594Y245930D01*
X744259Y245160D01*
X741759Y246402D01*
Y248752D01*
X745520Y252512D01*
X745594Y252470D01*
X748168Y251780D01*
X750832D01*
X753406Y252470D01*
X755714Y253802D01*
X757598Y255686D01*
X758930Y257994D01*
X759620Y260568D01*
Y263232D01*
X758930Y265806D01*
X757598Y268114D01*
X755714Y269998D01*
X753406Y271330D01*
X750832Y272020D01*
D02*
G37*
G36*
X509630Y209265D02*
X509470D01*
Y199670D01*
X519065D01*
Y199830D01*
X518325Y202594D01*
X516894Y205071D01*
X514871Y207094D01*
X512394Y208525D01*
X509630Y209265D01*
D02*
G37*
G36*
X506930D02*
X506770D01*
X504006Y208525D01*
X501529Y207094D01*
X499506Y205071D01*
X498075Y202594D01*
X497335Y199830D01*
Y199670D01*
X506930D01*
Y209265D01*
D02*
G37*
G36*
X519065Y197130D02*
X509470D01*
Y187535D01*
X509630D01*
X512394Y188275D01*
X514871Y189706D01*
X516894Y191729D01*
X518325Y194206D01*
X519065Y196970D01*
Y197130D01*
D02*
G37*
G36*
X506930D02*
X497335D01*
Y196970D01*
X498075Y194206D01*
X499506Y191729D01*
X501529Y189706D01*
X504006Y188275D01*
X506770Y187535D01*
X506930D01*
Y197130D01*
D02*
G37*
G36*
X106750Y189090D02*
X106270D01*
Y177070D01*
X118290D01*
Y177550D01*
X117384Y180930D01*
X115635Y183960D01*
X113160Y186435D01*
X110130Y188184D01*
X106750Y189090D01*
D02*
G37*
G36*
X750832Y195820D02*
X748168D01*
X745594Y195130D01*
X743286Y193798D01*
X741402Y191914D01*
X740070Y189606D01*
X739380Y187032D01*
Y184368D01*
X740070Y181794D01*
X741402Y179486D01*
X743286Y177602D01*
X745594Y176270D01*
X748168Y175580D01*
X750832D01*
X753406Y176270D01*
X755714Y177602D01*
X757598Y179486D01*
X758930Y181794D01*
X759620Y184368D01*
Y187032D01*
X758930Y189606D01*
X757598Y191914D01*
X755714Y193798D01*
X753406Y195130D01*
X750832Y195820D01*
D02*
G37*
G36*
X370220Y180790D02*
X370070D01*
Y171270D01*
X379590D01*
Y171420D01*
X378855Y174165D01*
X377434Y176625D01*
X375425Y178634D01*
X372965Y180055D01*
X370220Y180790D01*
D02*
G37*
G36*
X367530D02*
X367379D01*
X364635Y180055D01*
X362175Y178634D01*
X360166Y176625D01*
X358745Y174165D01*
X358010Y171420D01*
Y171270D01*
X367530D01*
Y180790D01*
D02*
G37*
G36*
X118290Y174530D02*
X106270D01*
Y162510D01*
X106750D01*
X110130Y163416D01*
X113160Y165165D01*
X115635Y167640D01*
X117384Y170670D01*
X118290Y174050D01*
Y174530D01*
D02*
G37*
G36*
X443730Y168730D02*
X434210D01*
Y168580D01*
X434945Y165835D01*
X436366Y163375D01*
X438375Y161366D01*
X440835Y159945D01*
X443579Y159210D01*
X443730D01*
Y168730D01*
D02*
G37*
G36*
X379590D02*
X370070D01*
Y159210D01*
X370220D01*
X372965Y159945D01*
X375425Y161366D01*
X377434Y163375D01*
X378855Y165835D01*
X379590Y168580D01*
Y168730D01*
D02*
G37*
G36*
X367530D02*
X358010D01*
Y168580D01*
X358745Y165835D01*
X360166Y163375D01*
X362175Y161366D01*
X364635Y159945D01*
X367379Y159210D01*
X367530D01*
Y168730D01*
D02*
G37*
G36*
X750832Y170420D02*
X748168D01*
X745594Y169730D01*
X743286Y168398D01*
X741402Y166514D01*
X740070Y164206D01*
X739380Y161632D01*
Y158968D01*
X740070Y156394D01*
X741402Y154086D01*
X743286Y152202D01*
X745594Y150870D01*
X748168Y150180D01*
X750832D01*
X753406Y150870D01*
X755714Y152202D01*
X757598Y154086D01*
X758930Y156394D01*
X759620Y158968D01*
Y161632D01*
X758930Y164206D01*
X757598Y166514D01*
X755714Y168398D01*
X753406Y169730D01*
X750832Y170420D01*
D02*
G37*
G36*
X725432D02*
X722768D01*
X720194Y169730D01*
X717886Y168398D01*
X716002Y166514D01*
X714670Y164206D01*
X713980Y161632D01*
Y158968D01*
X714670Y156394D01*
X716002Y154086D01*
X717886Y152202D01*
X720194Y150870D01*
X722768Y150180D01*
X725432D01*
X728006Y150870D01*
X730314Y152202D01*
X732198Y154086D01*
X733530Y156394D01*
X734220Y158968D01*
Y161632D01*
X733530Y164206D01*
X732198Y166514D01*
X730314Y168398D01*
X728006Y169730D01*
X725432Y170420D01*
D02*
G37*
G36*
X106270Y149490D02*
Y137470D01*
X118290D01*
Y149490D01*
X106270D01*
D02*
G37*
G36*
X750832Y145020D02*
X748168D01*
X745594Y144330D01*
X743286Y142998D01*
X741402Y141114D01*
X740070Y138806D01*
X739380Y136232D01*
Y133568D01*
X740070Y130994D01*
X741402Y128686D01*
X743286Y126802D01*
X745594Y125470D01*
X748168Y124780D01*
X750832D01*
X753406Y125470D01*
X755714Y126802D01*
X757598Y128686D01*
X758930Y130994D01*
X759620Y133568D01*
Y136232D01*
X758930Y138806D01*
X757598Y141114D01*
X755714Y142998D01*
X753406Y144330D01*
X750832Y145020D01*
D02*
G37*
G36*
X725432D02*
X722768D01*
X720194Y144330D01*
X717886Y142998D01*
X716002Y141114D01*
X714670Y138806D01*
X713980Y136232D01*
Y133568D01*
X714670Y130994D01*
X716002Y128686D01*
X717886Y126802D01*
X720194Y125470D01*
X722768Y124780D01*
X725432D01*
X728006Y125470D01*
X730314Y126802D01*
X732198Y128686D01*
X733530Y130994D01*
X734220Y133568D01*
Y136232D01*
X733530Y138806D01*
X732198Y141114D01*
X730314Y142998D01*
X728006Y144330D01*
X725432Y145020D01*
D02*
G37*
G36*
X118290Y134930D02*
X106270D01*
Y122910D01*
X118290D01*
Y134930D01*
D02*
G37*
G36*
X750832Y119620D02*
X748168D01*
X745594Y118930D01*
X743286Y117598D01*
X741402Y115714D01*
X740070Y113406D01*
X739380Y110832D01*
Y108168D01*
X740070Y105594D01*
X741402Y103286D01*
X743286Y101402D01*
X745594Y100070D01*
X748168Y99380D01*
X750832D01*
X753406Y100070D01*
X755714Y101402D01*
X757598Y103286D01*
X758930Y105594D01*
X759620Y108168D01*
Y110832D01*
X758930Y113406D01*
X757598Y115714D01*
X755714Y117598D01*
X753406Y118930D01*
X750832Y119620D01*
D02*
G37*
G36*
X725432D02*
X722768D01*
X720194Y118930D01*
X717886Y117598D01*
X716002Y115714D01*
X714670Y113406D01*
X713980Y110832D01*
Y108168D01*
X714670Y105594D01*
X716002Y103286D01*
X717886Y101402D01*
X720194Y100070D01*
X722768Y99380D01*
X725432D01*
X728006Y100070D01*
X730314Y101402D01*
X732198Y103286D01*
X733530Y105594D01*
X734220Y108168D01*
Y110832D01*
X733530Y113406D01*
X732198Y115714D01*
X730314Y117598D01*
X728006Y118930D01*
X725432Y119620D01*
D02*
G37*
G36*
X509625Y107625D02*
X506775D01*
X504022Y106887D01*
X501553Y105462D01*
X499538Y103447D01*
X498113Y100978D01*
X497375Y98225D01*
Y95375D01*
X498113Y92622D01*
X498296Y92304D01*
X490516Y84523D01*
X455105D01*
X455017Y84849D01*
X453602Y87301D01*
X451601Y89302D01*
X449149Y90717D01*
X446415Y91450D01*
X443585D01*
X440851Y90717D01*
X438399Y89302D01*
X436398Y87301D01*
X434983Y84849D01*
X434526Y83146D01*
X431905Y82232D01*
X430733Y83404D01*
X429493Y84232D01*
X428029Y84523D01*
X378905D01*
X378817Y84849D01*
X377402Y87301D01*
X375401Y89302D01*
X372949Y90717D01*
X370215Y91450D01*
X367385D01*
X364651Y90717D01*
X362199Y89302D01*
X360198Y87301D01*
X358783Y84849D01*
X358050Y82115D01*
Y79285D01*
X358783Y76551D01*
X360198Y74099D01*
X362199Y72098D01*
X364651Y70683D01*
X367385Y69950D01*
X370215D01*
X372949Y70683D01*
X375401Y72098D01*
X377402Y74099D01*
X378817Y76551D01*
X378905Y76877D01*
X426446D01*
X436994Y66329D01*
X437318Y65861D01*
X437149Y63108D01*
X436366Y62325D01*
X434945Y59865D01*
X434210Y57120D01*
Y56970D01*
X445000D01*
X455790D01*
Y57120D01*
X455055Y59865D01*
X453634Y62325D01*
X453583Y62377D01*
X454618Y64877D01*
X499467D01*
X499538Y64753D01*
X501553Y62738D01*
X504022Y61313D01*
X506775Y60575D01*
X509625D01*
X512378Y61313D01*
X514847Y62738D01*
X516862Y64753D01*
X518287Y67222D01*
X519025Y69975D01*
Y72825D01*
X518287Y75578D01*
X516862Y78047D01*
X514847Y80062D01*
X512378Y81487D01*
X509625Y82225D01*
X506775D01*
X504022Y81487D01*
X501553Y80062D01*
X499538Y78047D01*
X498113Y75578D01*
X497375Y72825D01*
Y72523D01*
X455342D01*
X454284Y74717D01*
X455528Y76877D01*
X492100D01*
X493563Y77168D01*
X494804Y77996D01*
X503704Y86896D01*
X504022Y86713D01*
X506775Y85975D01*
X509625D01*
X512378Y86713D01*
X514847Y88138D01*
X516862Y90153D01*
X518287Y92622D01*
X519025Y95375D01*
Y98225D01*
X518287Y100978D01*
X516862Y103447D01*
X514847Y105462D01*
X512378Y106887D01*
X509625Y107625D01*
D02*
G37*
G36*
X370220Y66490D02*
X370070D01*
Y56970D01*
X379590D01*
Y57120D01*
X378855Y59865D01*
X377434Y62325D01*
X375425Y64334D01*
X372965Y65755D01*
X370220Y66490D01*
D02*
G37*
G36*
X367530D02*
X367379D01*
X364635Y65755D01*
X362175Y64334D01*
X360166Y62325D01*
X358745Y59865D01*
X358010Y57120D01*
Y56970D01*
X367530D01*
Y66490D01*
D02*
G37*
G36*
X634782Y92950D02*
X630537D01*
X626374Y92122D01*
X622452Y90497D01*
X618923Y88139D01*
X615921Y85137D01*
X613563Y81608D01*
X611938Y77686D01*
X611110Y73523D01*
Y69278D01*
X611938Y65114D01*
X613563Y61192D01*
X615921Y57663D01*
X618923Y54661D01*
X622452Y52303D01*
X626374Y50678D01*
X630537Y49850D01*
X634782D01*
X638946Y50678D01*
X642868Y52303D01*
X646397Y54661D01*
X649399Y57663D01*
X651757Y61192D01*
X653382Y65114D01*
X654210Y69278D01*
Y73523D01*
X653382Y77686D01*
X651757Y81608D01*
X649399Y85137D01*
X646397Y88139D01*
X642868Y90497D01*
X638946Y92122D01*
X634782Y92950D01*
D02*
G37*
G36*
X455790Y54430D02*
X446270D01*
Y44910D01*
X446421D01*
X449165Y45645D01*
X451625Y47066D01*
X453634Y49075D01*
X455055Y51535D01*
X455790Y54279D01*
Y54430D01*
D02*
G37*
G36*
X443730D02*
X434210D01*
Y54279D01*
X434945Y51535D01*
X436366Y49075D01*
X438375Y47066D01*
X440835Y45645D01*
X443579Y44910D01*
X443730D01*
Y54430D01*
D02*
G37*
G36*
X379590D02*
X370070D01*
Y44910D01*
X370220D01*
X372965Y45645D01*
X375425Y47066D01*
X377434Y49075D01*
X378855Y51535D01*
X379590Y54279D01*
Y54430D01*
D02*
G37*
G36*
X367530D02*
X358010D01*
Y54279D01*
X358745Y51535D01*
X360166Y49075D01*
X362175Y47066D01*
X364635Y45645D01*
X367379Y44910D01*
X367530D01*
Y54430D01*
D02*
G37*
%LPD*%
G36*
X703933Y334868D02*
X705500Y333666D01*
X707325Y332910D01*
X706788Y330553D01*
X698954D01*
X644587Y384920D01*
X644630Y384994D01*
X645320Y387568D01*
Y389946D01*
X646018Y390501D01*
X647666Y391136D01*
X703933Y334868D01*
D02*
G37*
G36*
X694666Y324026D02*
X695907Y323198D01*
X697370Y322907D01*
X716593D01*
X717138Y322018D01*
X717495Y320407D01*
X716002Y318914D01*
X714670Y316606D01*
X713980Y314032D01*
Y311368D01*
X714670Y308794D01*
X715328Y307653D01*
X713945Y305153D01*
X698954D01*
X645320Y358787D01*
Y370107D01*
X647630Y371063D01*
X694666Y324026D01*
D02*
G37*
G36*
X498296Y152096D02*
X498113Y151778D01*
X497375Y149025D01*
Y146175D01*
X498113Y143422D01*
X498961Y141952D01*
X496961Y140417D01*
X452978Y184399D01*
X452680Y184832D01*
X452815Y187612D01*
X453602Y188399D01*
X455017Y190851D01*
X455097Y191148D01*
X459245D01*
X498296Y152096D01*
D02*
G37*
D10*
X508200Y490500D02*
X533600Y465100D01*
X482800Y490500D02*
X508200D01*
X199500Y405000D02*
X210000D01*
X180000Y385500D02*
X199500Y405000D01*
X648631Y660570D02*
X685000Y624200D01*
X648631Y660570D02*
Y690369D01*
X611400Y727600D02*
X648631Y690369D01*
X685000Y637989D02*
Y649600D01*
Y637989D02*
X704240Y618749D01*
X623400Y752600D02*
X653291Y722709D01*
Y706709D02*
Y722709D01*
X611400Y752600D02*
X623400D01*
X704240Y459560D02*
X724100Y439700D01*
X704240Y459560D02*
Y618749D01*
X685000Y700400D02*
X724100Y661300D01*
Y465100D02*
Y661300D01*
X653291Y706709D02*
X685000Y675000D01*
X492100Y80700D02*
X508200Y96800D01*
X445000Y80700D02*
X492100D01*
X505500Y68700D02*
X508200Y71400D01*
X440029Y68700D02*
X505500D01*
X370000Y80000D02*
X370700Y80700D01*
X428029D02*
X440029Y68700D01*
X370700Y80700D02*
X428029D01*
X368800D02*
X369500Y80000D01*
X370000D01*
X508200Y122200D02*
Y123771D01*
X449971Y182000D02*
X508200Y123771D01*
X441029Y182000D02*
X449971D01*
X428029Y195000D02*
X441029Y182000D01*
X368800Y195000D02*
X428029D01*
X445000D02*
X445029Y194971D01*
X460829D01*
X508200Y147600D01*
X263750Y330000D02*
X650000D01*
X692700Y287300D01*
X229500Y364250D02*
X263750Y330000D01*
X692700Y287300D02*
X724100D01*
X229500Y364250D02*
Y365000D01*
X635200Y363500D02*
X697370Y301330D01*
X735470D01*
X749500Y287300D01*
X697370Y326730D02*
X738130D01*
X749500Y338100D01*
X635200Y388900D02*
X697370Y326730D01*
X724100Y363500D02*
Y366880D01*
X637317Y453662D02*
X724100Y366880D01*
X635200Y465100D02*
X637317Y462983D01*
Y453662D02*
Y462983D01*
X508200Y249200D02*
X711400D01*
X508200Y223800D02*
X727480D01*
X508200Y173000D02*
X695320D01*
X711400Y249200D02*
X724100Y261900D01*
X695320Y173000D02*
X719390Y197070D01*
X736606Y207526D02*
Y223606D01*
X719390Y197070D02*
X726150D01*
X736606Y207526D01*
X178500Y340000D02*
Y363000D01*
X180000Y364500D01*
X211500Y340000D02*
Y364000D01*
X210500Y365000D02*
X211500Y364000D01*
X210500Y365000D02*
Y389500D01*
X210000Y390000D02*
X210500Y389500D01*
X210000Y405000D02*
X230000D01*
X210000Y390000D02*
X227700D01*
X230000Y392300D01*
X736606Y223606D02*
X749500Y236500D01*
X737936Y234256D02*
Y250336D01*
X749500Y261900D01*
X727480Y223800D02*
X737936Y234256D01*
X533600Y388900D02*
Y389300D01*
X482800Y440100D02*
X533600Y389300D01*
X482800Y390500D02*
X506600D01*
X482800Y440100D02*
Y440500D01*
X506600Y390500D02*
X533600Y363500D01*
D16*
X668600Y750000D02*
D03*
X685000D02*
D03*
D17*
X363100Y311200D02*
D03*
Y294800D02*
D03*
X343100Y311200D02*
D03*
Y294800D02*
D03*
D18*
X451000Y290000D02*
D03*
D19*
X389000Y267000D02*
D03*
Y290000D02*
D03*
Y313000D02*
D03*
D20*
X320000Y444000D02*
D03*
Y475000D02*
D03*
D21*
X230000Y405000D02*
D03*
Y417700D02*
D03*
Y430400D02*
D03*
Y392300D02*
D03*
X283400D02*
D03*
Y430400D02*
D03*
Y417700D02*
D03*
Y405000D02*
D03*
D22*
X263600Y411350D02*
D03*
D23*
X210000Y405000D02*
D03*
Y390000D02*
D03*
D24*
X210500Y365000D02*
D03*
X229500D02*
D03*
D25*
X180000Y385500D02*
D03*
Y364500D02*
D03*
D26*
X211500Y340000D02*
D03*
X178500D02*
D03*
D45*
X482800Y490500D02*
D03*
Y465500D02*
D03*
Y440500D02*
D03*
Y415500D02*
D03*
Y390500D02*
D03*
D46*
Y365500D02*
D03*
D54*
X685000Y725800D02*
Y750000D01*
X548720Y430838D02*
Y496763D01*
X533600Y415718D02*
X548720Y430838D01*
X533600Y414300D02*
Y415718D01*
X495176Y550307D02*
X548720Y496763D01*
X435693Y550307D02*
X495176D01*
X381000Y605000D02*
X435693Y550307D01*
X507250Y299050D02*
X508200Y300000D01*
X484875Y299050D02*
X507250D01*
X475825Y290000D02*
X484875Y299050D01*
X451000Y290000D02*
X475825D01*
X40250Y319750D02*
X105000Y255000D01*
X57000Y611618D02*
Y615000D01*
X40250Y594868D02*
X57000Y611618D01*
X40250Y319750D02*
Y594868D01*
X318376Y615000D02*
X328376Y605000D01*
X283000Y615000D02*
X318376D01*
X328376Y605000D02*
X330000D01*
X159093Y50000D02*
X260000D01*
X82500Y126593D02*
X159093Y50000D01*
X82500Y192900D02*
X105000Y215400D01*
X82500Y126593D02*
Y192900D01*
X341600Y294800D02*
X343100D01*
X270000Y283000D02*
X329800D01*
X341600Y294800D01*
X343400Y131100D02*
Y194600D01*
X368800Y220000D01*
X451000Y226000D02*
Y290000D01*
X445000Y220000D02*
X451000Y226000D01*
X721983Y340217D02*
X724100Y338100D01*
X709283Y340217D02*
X721983D01*
X635200Y414300D02*
X709283Y340217D01*
X343400Y131100D02*
X368800Y105700D01*
X362300Y267000D02*
X389000D01*
X345050Y284250D02*
X362300Y267000D01*
X345050Y284250D02*
Y294350D01*
X343100Y294800D02*
X344600D01*
X345050Y294350D01*
X385250Y313000D02*
X389000D01*
X383450Y311200D02*
X385250Y313000D01*
X363100Y311200D02*
X383450D01*
X343100D02*
X363100D01*
Y294800D02*
X380450D01*
X385250Y290000D01*
X389000D01*
X451000D01*
X368800Y105700D02*
X445000D01*
X368800Y220000D02*
X445000D01*
D55*
X105000Y255000D02*
Y330000D01*
X155425Y409200D02*
X176625Y430400D01*
X105000Y409200D02*
X155425D01*
X176625Y430400D02*
X227050D01*
X108181Y172619D02*
X137500Y201938D01*
X105000Y136200D02*
Y175800D01*
Y409200D02*
X116350Y397850D01*
X116701D01*
X137500Y377052D01*
Y201938D02*
Y377052D01*
X105000Y215400D02*
Y255000D01*
D56*
X59000Y415600D02*
X105000Y369600D01*
X59000Y415600D02*
Y500000D01*
X310000Y475000D02*
X320000D01*
X285000Y500000D02*
X310000Y475000D01*
X320000D02*
X390400D01*
X395000Y479600D01*
X283400Y407400D02*
X306400Y430400D01*
X354181Y444000D02*
X358181Y440000D01*
X395000D01*
X320000Y444000D02*
X354181D01*
X283400Y405000D02*
Y407400D01*
Y392300D02*
Y405000D01*
X306400Y430400D02*
X320000Y444000D01*
X283400Y430400D02*
X306400D01*
D57*
X459000Y728000D02*
X535000D01*
X535200Y727800D01*
X459000Y753000D02*
X611000D01*
X535200Y727800D02*
X611200D01*
X611400Y727600D01*
X611000Y753000D02*
X611400Y752600D01*
X586800Y678000D02*
X611400Y702600D01*
X535200Y678000D02*
X586800D01*
X459000D02*
X535200D01*
D58*
X230000Y405000D02*
Y417700D01*
D59*
X761200Y725800D02*
D03*
Y700400D02*
D03*
Y675000D02*
D03*
Y649600D02*
D03*
Y624200D02*
D03*
Y598800D02*
D03*
Y573400D02*
D03*
Y548000D02*
D03*
X685000D02*
D03*
Y573400D02*
D03*
Y598800D02*
D03*
Y624200D02*
D03*
Y649600D02*
D03*
Y675000D02*
D03*
Y700400D02*
D03*
D60*
Y725800D02*
D03*
D61*
X611400Y702600D02*
D03*
Y727600D02*
D03*
X535200Y778000D02*
D03*
Y753000D02*
D03*
Y728000D02*
D03*
Y703000D02*
D03*
Y678000D02*
D03*
Y653000D02*
D03*
Y628000D02*
D03*
Y603000D02*
D03*
X459000D02*
D03*
Y628000D02*
D03*
Y653000D02*
D03*
Y678000D02*
D03*
Y703000D02*
D03*
Y728000D02*
D03*
Y753000D02*
D03*
Y778000D02*
D03*
X445000Y80700D02*
D03*
Y55700D02*
D03*
X368800Y80700D02*
D03*
Y55700D02*
D03*
X445000Y170000D02*
D03*
Y195000D02*
D03*
X368800Y170000D02*
D03*
Y195000D02*
D03*
D62*
X611400Y752600D02*
D03*
X535200Y578000D02*
D03*
X459000D02*
D03*
X445000Y105700D02*
D03*
X368800D02*
D03*
X445000Y220000D02*
D03*
X368800D02*
D03*
D63*
X508200Y300000D02*
D03*
Y274600D02*
D03*
Y249200D02*
D03*
Y223800D02*
D03*
Y198400D02*
D03*
Y173000D02*
D03*
Y147600D02*
D03*
Y122200D02*
D03*
Y96800D02*
D03*
Y71400D02*
D03*
D64*
X632660Y300000D02*
D03*
Y71400D02*
D03*
D65*
X533600Y490500D02*
D03*
Y465100D02*
D03*
Y439700D02*
D03*
Y414300D02*
D03*
Y388900D02*
D03*
X635200Y490500D02*
D03*
Y465100D02*
D03*
Y439700D02*
D03*
Y414300D02*
D03*
Y388900D02*
D03*
X724100Y109500D02*
D03*
Y134900D02*
D03*
Y160300D02*
D03*
Y185700D02*
D03*
Y211100D02*
D03*
Y236500D02*
D03*
Y261900D02*
D03*
Y287300D02*
D03*
Y312700D02*
D03*
Y338100D02*
D03*
Y363500D02*
D03*
Y388900D02*
D03*
Y414300D02*
D03*
Y439700D02*
D03*
Y465100D02*
D03*
X749500Y109500D02*
D03*
Y134900D02*
D03*
Y160300D02*
D03*
Y185700D02*
D03*
Y211100D02*
D03*
Y236500D02*
D03*
Y261900D02*
D03*
Y287300D02*
D03*
Y312700D02*
D03*
Y338100D02*
D03*
Y363500D02*
D03*
Y388900D02*
D03*
Y414300D02*
D03*
Y439700D02*
D03*
Y465100D02*
D03*
D66*
X533600Y363500D02*
D03*
X635200D02*
D03*
D67*
X356000Y605000D02*
D03*
X381000D02*
D03*
X330000D02*
D03*
D68*
X270000Y283000D02*
D03*
Y57000D02*
D03*
X285000Y500000D02*
D03*
X59000D02*
D03*
X283000Y615000D02*
D03*
X57000D02*
D03*
D69*
X395000Y479600D02*
D03*
D70*
Y440000D02*
D03*
D71*
X105000Y409200D02*
D03*
Y369600D02*
D03*
Y255000D02*
D03*
Y175800D02*
D03*
Y215400D02*
D03*
D72*
Y330000D02*
D03*
Y136200D02*
D03*
D73*
X780000Y810000D02*
D03*
Y40000D02*
D03*
X40000D02*
D03*
Y810000D02*
D03*
M02*
