G04*
G04 #@! TF.GenerationSoftware,Altium Limited,Altium Designer,24.6.1 (21)*
G04*
G04 Layer_Color=16711935*
%FSLAX44Y44*%
%MOMM*%
G71*
G04*
G04 #@! TF.SameCoordinates,E9AD6EAF-A10B-4CD1-A982-26115741FB32*
G04*
G04*
G04 #@! TF.FilePolarity,Positive*
G04*
G01*
G75*
%ADD11C,0.1000*%
%ADD12C,0.2000*%
%ADD13C,0.1270*%
D11*
X666800Y756250D02*
X686800D01*
Y743750D02*
Y756250D01*
X666800Y743750D02*
X686800D01*
X666800D02*
Y756250D01*
X690100Y722950D02*
X702800Y735650D01*
X690100Y538150D02*
Y735650D01*
Y538150D02*
X756100D01*
Y735650D01*
X690100D02*
X756100D01*
X577400Y777100D02*
X634900D01*
X577400Y678100D02*
Y777100D01*
Y678100D02*
X634900D01*
Y777100D01*
X558700Y553500D02*
Y802500D01*
X501200D02*
X558700D01*
X501200Y553500D02*
Y802500D01*
Y553500D02*
X558700D01*
X425000D02*
X482500D01*
X425000D02*
Y802500D01*
X482500D01*
Y553500D02*
Y802500D01*
X304000Y577000D02*
X408000D01*
X304000Y653000D02*
X408000D01*
X304000Y577000D02*
Y653000D01*
X408000Y577000D02*
Y653000D01*
X356850Y293000D02*
X369350D01*
Y313000D01*
X356850D02*
X369350D01*
X356850Y293000D02*
Y313000D01*
X336850Y293000D02*
X349350D01*
Y313000D01*
X336850D02*
X349350D01*
X336850Y293000D02*
Y313000D01*
X402500Y299500D02*
X425500Y322500D01*
X402500Y257500D02*
Y322500D01*
Y257500D02*
X437500D01*
Y322500D01*
X402500D02*
X437500D01*
X468500Y31200D02*
Y130200D01*
X411000Y31200D02*
X468500D01*
X411000D02*
Y130200D01*
X468500D01*
X392300Y31200D02*
Y130200D01*
X334800Y31200D02*
X392300D01*
X334800D02*
Y130200D01*
X392300D01*
X411000Y244500D02*
X468500D01*
X411000Y145500D02*
Y244500D01*
Y145500D02*
X468500D01*
Y244500D01*
X334800D02*
X392300D01*
X334800Y145500D02*
Y244500D01*
Y145500D02*
X392300D01*
Y244500D01*
X347000Y420500D02*
Y499100D01*
Y420500D02*
X415000D01*
Y499100D01*
X347000D02*
X415000D01*
Y489350D02*
X432000D01*
Y430850D02*
Y489350D01*
X415000Y430850D02*
X432000D01*
X311000Y472500D02*
X329000D01*
X311000Y446500D02*
Y472500D01*
Y446500D02*
X329000D01*
Y472500D01*
X203250Y408500D02*
X216750D01*
X203250Y386500D02*
X216750D01*
Y408500D01*
X203250Y386500D02*
Y408500D01*
X209000Y372250D02*
X231000D01*
X209000Y357750D02*
X231000D01*
X209000D02*
Y372250D01*
X231000Y357750D02*
Y372250D01*
X182000Y344300D02*
X185700Y348000D01*
X182000Y332000D02*
Y348000D01*
Y332000D02*
X208000D01*
Y348000D01*
X182000D02*
X208000D01*
X85003Y310500D02*
Y323497D01*
Y310500D02*
X151000D01*
X85003Y415698D02*
Y428700D01*
X151000D01*
X66003Y415698D02*
X85003D01*
X66003Y323497D02*
X85003D01*
X66003D02*
Y415698D01*
X151000Y310500D02*
Y428700D01*
X68000Y116700D02*
X153000D01*
X68000Y274500D02*
X153000D01*
Y116700D02*
Y274500D01*
X68003Y116700D02*
Y274500D01*
D12*
X218500Y430400D02*
G03*
X218500Y430400I-1000J0D01*
G01*
X656790Y46000D02*
Y325400D01*
X484070Y46000D02*
X656790D01*
X484070D02*
Y325400D01*
X656790D01*
D13*
X517750Y346750D02*
X651050D01*
Y507250D01*
X517750D02*
X651050D01*
X517750Y346750D02*
Y507250D01*
X227950Y386850D02*
Y435850D01*
Y386850D02*
X285450D01*
Y435850D01*
X227950D02*
X285450D01*
M02*
