G04*
G04 #@! TF.GenerationSoftware,Altium Limited,Altium Designer,24.6.1 (21)*
G04*
G04 Layer_Color=32768*
%FSLAX44Y44*%
%MOMM*%
G71*
G04*
G04 #@! TF.SameCoordinates,E9AD6EAF-A10B-4CD1-A982-26115741FB32*
G04*
G04*
G04 #@! TF.FilePolarity,Positive*
G04*
G01*
G75*
%ADD11C,0.1000*%
%ADD74C,0.0500*%
D11*
X666790Y36000D02*
Y335400D01*
X474070Y36000D02*
X666790D01*
X474070D02*
Y335400D01*
X666790D01*
X356000Y600000D02*
Y610000D01*
X351000Y605000D02*
X361000D01*
X442000Y410500D02*
Y509100D01*
X337000Y410500D02*
X442000D01*
X337000D02*
Y509100D01*
X442000D01*
X301000Y490750D02*
X339000D01*
X301000Y428250D02*
Y490750D01*
Y428250D02*
X339000D01*
Y490750D01*
X210000Y392500D02*
Y402500D01*
X205000Y397500D02*
X215000D01*
X220000Y360000D02*
Y370000D01*
X215000Y365000D02*
X225000D01*
X112500Y369600D02*
X122500D01*
X117500Y364600D02*
Y374600D01*
X119500Y190600D02*
Y200600D01*
X114500Y195600D02*
X124500D01*
D74*
X662550Y758500D02*
X691050D01*
Y741500D02*
Y758500D01*
X662550Y741500D02*
X691050D01*
X662550D02*
Y758500D01*
X676500Y535650D02*
Y738150D01*
Y535650D02*
X769700D01*
Y738150D01*
X676500D02*
X769700D01*
X574900Y779600D02*
X637400D01*
X574900Y675600D02*
Y779600D01*
Y675600D02*
X637400D01*
Y779600D01*
X561200Y551000D02*
Y805000D01*
X498700D02*
X561200D01*
X498700Y551000D02*
Y805000D01*
Y551000D02*
X561200D01*
X422500D02*
X485000D01*
X422500D02*
Y805000D01*
X485000D01*
Y551000D02*
Y805000D01*
X515250Y344250D02*
Y509750D01*
X653550D01*
Y344250D02*
Y509750D01*
X515250Y344250D02*
X653550D01*
X409000Y576000D02*
Y654000D01*
X303000D02*
X409000D01*
X303000Y576000D02*
X409000D01*
X303000D02*
Y654000D01*
X354600Y288750D02*
X371600D01*
Y317250D01*
X354600D02*
X371600D01*
X354600Y288750D02*
Y317250D01*
X334600Y288750D02*
X351600D01*
Y317250D01*
X334600D02*
X351600D01*
X334600Y288750D02*
Y317250D01*
X377250Y254000D02*
Y326000D01*
Y254000D02*
X462750D01*
Y326000D01*
X377250D02*
X462750D01*
X471000Y28700D02*
Y132700D01*
X408500Y28700D02*
X471000D01*
X408500D02*
Y132700D01*
X471000D01*
X394800Y28700D02*
Y132700D01*
X332300Y28700D02*
X394800D01*
X332300D02*
Y132700D01*
X394800D01*
X408500Y247000D02*
X471000D01*
X408500Y143000D02*
Y247000D01*
Y143000D02*
X471000D01*
Y247000D01*
X332300D02*
X394800D01*
X332300Y143000D02*
Y247000D01*
Y143000D02*
X394800D01*
Y247000D01*
X221150Y384350D02*
Y438350D01*
Y384350D02*
X292300D01*
Y438350D01*
X221150D02*
X292300D01*
X202000Y411000D02*
X218000D01*
X202000Y384000D02*
X218000D01*
Y411000D01*
X202000Y384000D02*
Y411000D01*
X198500Y378000D02*
X241500D01*
X198500Y352000D02*
X241500D01*
X198500D02*
Y378000D01*
X241500Y352000D02*
Y378000D01*
X173300Y330500D02*
Y349500D01*
Y330500D02*
X216700D01*
Y349500D01*
X173300D02*
X216700D01*
X65000Y429700D02*
X152000D01*
Y309500D02*
Y429700D01*
X65000Y309500D02*
X152000D01*
X65000D02*
Y429700D01*
X67000Y115700D02*
Y275500D01*
Y115700D02*
X154000D01*
Y275500D01*
X67000D02*
X154000D01*
M02*
