G04*
G04 #@! TF.GenerationSoftware,Altium Limited,Altium Designer,24.6.1 (21)*
G04*
G04 Layer_Color=32896*
%FSLAX44Y44*%
%MOMM*%
G71*
G04*
G04 #@! TF.SameCoordinates,E9AD6EAF-A10B-4CD1-A982-26115741FB32*
G04*
G04*
G04 #@! TF.FilePolarity,Positive*
G04*
G01*
G75*
%ADD75C,0.1500*%
D75*
X265002Y101272D02*
X262502Y98773D01*
Y93775D01*
X265002Y91276D01*
X267501D01*
X270000Y93775D01*
Y98773D01*
X272499Y101272D01*
X274998D01*
X277498Y98773D01*
Y93775D01*
X274998Y91276D01*
X277498Y113768D02*
Y108770D01*
X274998Y106271D01*
X270000D01*
X267501Y108770D01*
Y113768D01*
X270000Y116267D01*
X272499D01*
Y106271D01*
X277498Y121266D02*
X267501D01*
Y128763D01*
X270000Y131263D01*
X277498D01*
Y136261D02*
Y143758D01*
X274998Y146258D01*
X272499Y143758D01*
Y138760D01*
X270000Y136261D01*
X267501Y138760D01*
Y146258D01*
X277498Y153755D02*
Y158754D01*
X274998Y161253D01*
X270000D01*
X267501Y158754D01*
Y153755D01*
X270000Y151256D01*
X274998D01*
X277498Y153755D01*
X267501Y166251D02*
X277498D01*
X272499D01*
X270000Y168750D01*
X267501Y171250D01*
Y173749D01*
X265002Y196241D02*
X262502Y198741D01*
Y203739D01*
X265002Y206238D01*
X274998D01*
X277498Y203739D01*
Y198741D01*
X274998Y196241D01*
X265002D01*
X277498Y211237D02*
X274998D01*
Y213736D01*
X277498D01*
Y211237D01*
Y233729D02*
Y223733D01*
X267501Y233729D01*
X265002D01*
X262502Y231230D01*
Y226232D01*
X265002Y223733D01*
X277498Y238728D02*
X267501D01*
X262502Y243726D01*
X267501Y248724D01*
X277498D01*
X270000D01*
Y238728D01*
X118267Y507498D02*
Y497501D01*
X123266Y492502D01*
X128264Y497501D01*
Y507498D01*
X133263Y492502D02*
X138261D01*
X135762D01*
Y502499D01*
X133263D01*
X145758Y507498D02*
Y492502D01*
X153256D01*
X155755Y495002D01*
Y497501D01*
Y500000D01*
X153256Y502499D01*
X145758D01*
X160754D02*
Y492502D01*
Y497501D01*
X163253Y500000D01*
X165752Y502499D01*
X168251D01*
X178248D02*
X183246D01*
X185746Y500000D01*
Y492502D01*
X178248D01*
X175749Y495002D01*
X178248Y497501D01*
X185746D01*
X193243Y504998D02*
Y502499D01*
X190744D01*
X195742D01*
X193243D01*
Y495002D01*
X195742Y492502D01*
X205739D02*
X210737D01*
X213237Y495002D01*
Y500000D01*
X210737Y502499D01*
X205739D01*
X203240Y500000D01*
Y495002D01*
X205739Y492502D01*
X218235Y502499D02*
Y492502D01*
Y497501D01*
X220734Y500000D01*
X223233Y502499D01*
X225733D01*
X121266Y607502D02*
Y622498D01*
X126264Y617499D01*
X131263Y622498D01*
Y607502D01*
X138760Y617499D02*
X143758D01*
X146258Y615000D01*
Y607502D01*
X138760D01*
X136261Y610002D01*
X138760Y612501D01*
X146258D01*
X151256Y607502D02*
X156254D01*
X153755D01*
Y617499D01*
X151256D01*
X163752Y607502D02*
Y617499D01*
X171250D01*
X173749Y615000D01*
Y607502D01*
X203739D02*
X193742D01*
X203739Y617499D01*
Y619998D01*
X201240Y622498D01*
X196241D01*
X193742Y619998D01*
X208738Y607502D02*
Y617499D01*
X213736Y622498D01*
X218734Y617499D01*
Y607502D01*
Y615000D01*
X208738D01*
M02*
