G04*
G04 #@! TF.GenerationSoftware,Altium Limited,Altium Designer,24.6.1 (21)*
G04*
G04 Layer_Color=65535*
%FSLAX44Y44*%
%MOMM*%
G71*
G04*
G04 #@! TF.SameCoordinates,E9AD6EAF-A10B-4CD1-A982-26115741FB32*
G04*
G04*
G04 #@! TF.FilePolarity,Positive*
G04*
G01*
G75*
%ADD10C,0.2500*%
%ADD11C,0.1000*%
%ADD12C,0.2000*%
%ADD13C,0.1270*%
%ADD14C,0.1778*%
%ADD15C,0.2540*%
D10*
X484050Y335750D02*
G03*
X484050Y335750I-1250J0D01*
G01*
X299250Y605000D02*
G03*
X299250Y605000I-1250J0D01*
G01*
X181250Y397500D02*
G03*
X181250Y397500I-1250J0D01*
G01*
X107250Y304000D02*
G03*
X107250Y304000I-1250J0D01*
G01*
X108250Y110200D02*
G03*
X108250Y110200I-1250J0D01*
G01*
D11*
X395000Y503600D02*
G03*
X395000Y502600I0J-500D01*
G01*
D02*
G03*
X395000Y503600I0J500D01*
G01*
X320000Y486500D02*
G03*
X320000Y485500I0J-500D01*
G01*
D02*
G03*
X320000Y486500I0J500D01*
G01*
X656790Y46000D02*
Y325400D01*
X484070Y46000D02*
X656790D01*
X484070D02*
Y325400D01*
X656790D01*
D12*
X218500Y430400D02*
G03*
X218500Y430400I-1000J0D01*
G01*
X676800Y744750D02*
Y755250D01*
X690100Y538150D02*
X756100D01*
X679000Y735650D02*
X756100D01*
X577400Y777100D02*
X611400D01*
X577400Y678100D02*
Y777100D01*
Y678100D02*
X634900D01*
Y752600D01*
X501200Y553500D02*
X535200D01*
X501200D02*
Y802500D01*
X558700D01*
Y578000D02*
Y802500D01*
X482500Y578000D02*
Y802500D01*
X425000D02*
X482500D01*
X425000Y553500D02*
Y802500D01*
Y553500D02*
X459000D01*
X448800Y341000D02*
X506300D01*
Y515000D01*
X448800D02*
X506300D01*
X448800Y341000D02*
Y515000D01*
X408000Y577000D02*
Y653000D01*
X304000Y577000D02*
Y653000D01*
X408000D01*
X304000Y577000D02*
X408000D01*
X357850Y303000D02*
X368350D01*
X337850D02*
X348350D01*
X379750Y321000D02*
X398250D01*
X402500Y257500D02*
Y322500D01*
Y257500D02*
X437500D01*
Y322500D01*
X402500D02*
X437500D01*
X468500Y31200D02*
Y105700D01*
X411000Y31200D02*
X468500D01*
X411000D02*
Y130200D01*
X445000D01*
X392300Y31200D02*
Y105700D01*
X334800Y31200D02*
X392300D01*
X334800D02*
Y130200D01*
X368800D01*
X411000Y244500D02*
X445000D01*
X411000Y145500D02*
Y244500D01*
Y145500D02*
X468500D01*
Y220000D01*
X334800Y244500D02*
X368800D01*
X334800Y145500D02*
Y244500D01*
Y145500D02*
X392300D01*
Y220000D01*
X223000Y48000D02*
Y292000D01*
X317000Y48000D02*
Y292000D01*
X281000Y48000D02*
X317000D01*
X223000D02*
X259000D01*
X281000Y292000D02*
X317000D01*
X223000D02*
X259000D01*
X415000Y420500D02*
Y499100D01*
X347000Y420500D02*
X415000D01*
X347000D02*
Y499100D01*
X415000D01*
Y489350D02*
X432000D01*
Y430850D02*
Y489350D01*
X415000Y430850D02*
X432000D01*
X329000Y453000D02*
Y466000D01*
X311000Y453000D02*
Y466000D01*
X169500Y364500D02*
Y385500D01*
X190500Y364500D02*
Y385500D01*
X182000Y332000D02*
X208000D01*
X174800Y348000D02*
X208000D01*
X66000Y323500D02*
Y415700D01*
X85000D01*
Y428700D01*
X151000D01*
Y310500D02*
Y428700D01*
X85000Y310500D02*
X151000D01*
X85000D02*
Y323500D01*
X66000D02*
X85000D01*
X68003Y116700D02*
Y274500D01*
X153000Y116700D02*
Y274500D01*
X68000D02*
X153000D01*
X68000Y116700D02*
X153000D01*
X50000Y547000D02*
X294000D01*
X50000Y453000D02*
X294000D01*
X50000D02*
Y489000D01*
Y511000D02*
Y547000D01*
X294000Y453000D02*
Y489000D01*
Y511000D02*
Y547000D01*
X48000Y662000D02*
X292000D01*
X48000Y568000D02*
X292000D01*
X48000D02*
Y604000D01*
Y626000D02*
Y662000D01*
X292000Y568000D02*
Y604000D01*
Y626000D02*
Y662000D01*
D13*
X517750Y346750D02*
X651050D01*
Y507250D01*
X517750D02*
X651050D01*
X517750Y346750D02*
Y507250D01*
X239550Y386850D02*
X276700D01*
X239550Y435850D02*
X276700D01*
D14*
X711400Y477800D02*
X749500D01*
X711400Y96800D02*
Y477800D01*
Y96800D02*
X762200D01*
Y465100D01*
D15*
X702461Y760078D02*
X699922Y762618D01*
X694843D01*
X692304Y760078D01*
Y749922D01*
X694843Y747383D01*
X699922D01*
X702461Y749922D01*
X707539Y760078D02*
X710078Y762618D01*
X715157D01*
X717696Y760078D01*
Y757539D01*
X715157Y755000D01*
X712617D01*
X715157D01*
X717696Y752461D01*
Y749922D01*
X715157Y747383D01*
X710078D01*
X707539Y749922D01*
X703456Y715117D02*
X708534D01*
X705995D01*
Y699883D01*
X703456D01*
X708534D01*
X726309Y712578D02*
X723770Y715117D01*
X718691D01*
X716152Y712578D01*
Y702422D01*
X718691Y699883D01*
X723770D01*
X726309Y702422D01*
X741544Y699883D02*
X731387D01*
X741544Y710039D01*
Y712578D01*
X739005Y715117D01*
X733926D01*
X731387Y712578D01*
X578433Y789883D02*
Y805117D01*
X586050D01*
X588590Y802578D01*
Y797500D01*
X586050Y794961D01*
X578433D01*
X596207Y789883D02*
X601286D01*
X603825Y792422D01*
Y797500D01*
X601286Y800039D01*
X596207D01*
X593668Y797500D01*
Y792422D01*
X596207Y789883D01*
X608903Y800039D02*
Y792422D01*
X611442Y789883D01*
X613981Y792422D01*
X616521Y789883D01*
X619060Y792422D01*
Y800039D01*
X631756Y789883D02*
X626677D01*
X624138Y792422D01*
Y797500D01*
X626677Y800039D01*
X631756D01*
X634295Y797500D01*
Y794961D01*
X624138D01*
X639373Y800039D02*
Y789883D01*
Y794961D01*
X641912Y797500D01*
X644452Y800039D01*
X646991D01*
X680000Y802578D02*
X677461Y805117D01*
X672383D01*
X669843Y802578D01*
Y800039D01*
X672383Y797500D01*
X677461D01*
X680000Y794961D01*
Y792422D01*
X677461Y789883D01*
X672383D01*
X669843Y792422D01*
X685078Y800039D02*
Y792422D01*
X687618Y789883D01*
X690157Y792422D01*
X692696Y789883D01*
X695235Y792422D01*
Y800039D01*
X700313Y789883D02*
X705392D01*
X702853D01*
Y800039D01*
X700313D01*
X715548Y802578D02*
Y800039D01*
X713009D01*
X718088D01*
X715548D01*
Y792422D01*
X718088Y789883D01*
X735862Y800039D02*
X728244D01*
X725705Y797500D01*
Y792422D01*
X728244Y789883D01*
X735862D01*
X740940Y805117D02*
Y789883D01*
Y797500D01*
X743480Y800039D01*
X748558D01*
X751097Y797500D01*
Y789883D01*
X763793D02*
X758715D01*
X756175Y792422D01*
Y797500D01*
X758715Y800039D01*
X763793D01*
X766332Y797500D01*
Y794961D01*
X756175D01*
X771410Y789883D02*
X779028D01*
X781567Y792422D01*
X779028Y794961D01*
X773950D01*
X771410Y797500D01*
X773950Y800039D01*
X781567D01*
X504569Y825118D02*
Y809883D01*
X512187D01*
X514726Y812422D01*
Y814961D01*
X512187Y817500D01*
X504569D01*
X512187D01*
X514726Y820039D01*
Y822578D01*
X512187Y825118D01*
X504569D01*
X519804D02*
Y809883D01*
X529961D01*
X535039Y825118D02*
Y809883D01*
X542657D01*
X545196Y812422D01*
Y822578D01*
X542657Y825118D01*
X535039D01*
X560431Y822578D02*
X557892Y825118D01*
X552813D01*
X550274Y822578D01*
Y812422D01*
X552813Y809883D01*
X557892D01*
X560431Y812422D01*
X427069Y825118D02*
Y809883D01*
X434687D01*
X437226Y812422D01*
Y814961D01*
X434687Y817500D01*
X427069D01*
X434687D01*
X437226Y820039D01*
Y822578D01*
X434687Y825118D01*
X427069D01*
X442304D02*
Y809883D01*
X452461D01*
X457539Y825118D02*
Y809883D01*
X465157D01*
X467696Y812422D01*
Y822578D01*
X465157Y825118D01*
X457539D01*
X482931Y822578D02*
X480392Y825118D01*
X475313D01*
X472774Y822578D01*
Y812422D01*
X475313Y809883D01*
X480392D01*
X482931Y812422D01*
X553495Y197617D02*
X558574D01*
X556035D01*
Y182383D01*
X553495D01*
X558574D01*
X576348Y195078D02*
X573809Y197617D01*
X568730D01*
X566191Y195078D01*
Y184922D01*
X568730Y182383D01*
X573809D01*
X576348Y184922D01*
X581426Y182383D02*
X586505D01*
X583965D01*
Y197617D01*
X581426Y195078D01*
X568456Y437617D02*
X573535D01*
X570995D01*
Y422383D01*
X568456D01*
X573535D01*
X591309Y435078D02*
X588770Y437617D01*
X583691D01*
X581152Y435078D01*
Y424922D01*
X583691Y422383D01*
X588770D01*
X591309Y424922D01*
X596387Y435078D02*
X598926Y437617D01*
X604005D01*
X606544Y435078D01*
Y432539D01*
X604005Y430000D01*
X601465D01*
X604005D01*
X606544Y427461D01*
Y424922D01*
X604005Y422383D01*
X598926D01*
X596387Y424922D01*
X434883Y344859D02*
X432343Y342320D01*
Y337242D01*
X434883Y334702D01*
X437422D01*
X439961Y337242D01*
Y342320D01*
X442500Y344859D01*
X445039D01*
X447578Y342320D01*
Y337242D01*
X445039Y334702D01*
X434883Y352477D02*
X437422D01*
Y349938D01*
Y355016D01*
Y352477D01*
X445039D01*
X447578Y355016D01*
Y370251D02*
Y365173D01*
X445039Y362633D01*
X439961D01*
X437422Y365173D01*
Y370251D01*
X439961Y372790D01*
X442500D01*
Y362633D01*
X452657Y377868D02*
X437422D01*
Y385486D01*
X439961Y388025D01*
X445039D01*
X447578Y385486D01*
Y377868D01*
X452657Y393104D02*
X437422D01*
Y400721D01*
X439961Y403260D01*
X445039D01*
X447578Y400721D01*
Y393104D01*
Y415956D02*
Y410878D01*
X445039Y408339D01*
X439961D01*
X437422Y410878D01*
Y415956D01*
X439961Y418495D01*
X442500D01*
Y408339D01*
X437422Y423574D02*
X447578D01*
X442500D01*
X439961Y426113D01*
X437422Y428652D01*
Y431191D01*
X432343Y454044D02*
X447578D01*
Y461661D01*
X445039Y464201D01*
X434883D01*
X432343Y461661D01*
Y454044D01*
X437422Y469279D02*
X447578D01*
X442500D01*
X439961Y471818D01*
X437422Y474357D01*
Y476897D01*
X447578Y484514D02*
Y489592D01*
Y487053D01*
X437422D01*
Y484514D01*
Y497210D02*
X447578Y502288D01*
X437422Y507367D01*
X447578Y520062D02*
Y514984D01*
X445039Y512445D01*
X439961D01*
X437422Y514984D01*
Y520062D01*
X439961Y522602D01*
X442500D01*
Y512445D01*
X437422Y527680D02*
X447578D01*
X442500D01*
X439961Y530219D01*
X437422Y532758D01*
Y535298D01*
X174843Y325117D02*
Y309883D01*
X182461D01*
X185000Y312422D01*
Y322578D01*
X182461Y325117D01*
X174843D01*
X190078Y309883D02*
X195157D01*
X192618D01*
Y325117D01*
X190078Y322578D01*
X162304Y412617D02*
Y397383D01*
X169922D01*
X172461Y399922D01*
Y410078D01*
X169922Y412617D01*
X162304D01*
X187696Y397383D02*
X177539D01*
X187696Y407539D01*
Y410078D01*
X185157Y412617D01*
X180078D01*
X177539Y410078D01*
X192343Y417383D02*
Y432617D01*
X199961D01*
X202500Y430078D01*
Y425000D01*
X199961Y422461D01*
X192343D01*
X197422D02*
X202500Y417383D01*
X207578D02*
X212657D01*
X210118D01*
Y432617D01*
X207578Y430078D01*
X344843Y624883D02*
Y640117D01*
X352461D01*
X355000Y637578D01*
Y632500D01*
X352461Y629961D01*
X344843D01*
X360078Y624883D02*
X365157D01*
X362618D01*
Y640117D01*
X360078Y637578D01*
X357461Y332578D02*
X354922Y335117D01*
X349843D01*
X347304Y332578D01*
Y322422D01*
X349843Y319883D01*
X354922D01*
X357461Y322422D01*
X372696Y319883D02*
X362539D01*
X372696Y330039D01*
Y332578D01*
X370157Y335117D01*
X365078D01*
X362539Y332578D01*
X332500D02*
X329961Y335117D01*
X324883D01*
X322343Y332578D01*
Y322422D01*
X324883Y319883D01*
X329961D01*
X332500Y322422D01*
X337578Y319883D02*
X342657D01*
X340118D01*
Y335117D01*
X337578Y332578D01*
X427617Y277304D02*
X412382D01*
Y284922D01*
X414922Y287461D01*
X420000D01*
X422539Y284922D01*
Y277304D01*
X427617Y302696D02*
Y292539D01*
X417461Y302696D01*
X414922D01*
X412382Y300157D01*
Y295078D01*
X414922Y292539D01*
X477304Y27383D02*
Y37539D01*
X482383Y42618D01*
X487461Y37539D01*
Y27383D01*
Y35000D01*
X477304D01*
X502696Y27383D02*
X492539D01*
X502696Y37539D01*
Y40078D01*
X500157Y42618D01*
X495078D01*
X492539Y40078D01*
X302304Y27383D02*
Y37539D01*
X307383Y42618D01*
X312461Y37539D01*
Y27383D01*
Y35000D01*
X302304D01*
X317539Y40078D02*
X320078Y42618D01*
X325157D01*
X327696Y40078D01*
Y37539D01*
X325157Y35000D01*
X322617D01*
X325157D01*
X327696Y32461D01*
Y29922D01*
X325157Y27383D01*
X320078D01*
X317539Y29922D01*
X449804Y249883D02*
Y260039D01*
X454883Y265118D01*
X459961Y260039D01*
Y249883D01*
Y257500D01*
X449804D01*
X465039Y262578D02*
X467578Y265118D01*
X472657D01*
X475196Y262578D01*
Y252422D01*
X472657Y249883D01*
X467578D01*
X465039Y252422D01*
Y262578D01*
X329843Y249883D02*
Y260039D01*
X334922Y265118D01*
X340000Y260039D01*
Y249883D01*
Y257500D01*
X329843D01*
X345078Y249883D02*
X350157D01*
X347618D01*
Y265118D01*
X345078Y262578D01*
X204922Y55173D02*
X202383Y52633D01*
Y47555D01*
X204922Y45016D01*
X207461D01*
X210000Y47555D01*
Y52633D01*
X212539Y55173D01*
X215078D01*
X217617Y52633D01*
Y47555D01*
X215078Y45016D01*
X217617Y67868D02*
Y62790D01*
X215078Y60251D01*
X210000D01*
X207461Y62790D01*
Y67868D01*
X210000Y70408D01*
X212539D01*
Y60251D01*
X217617Y75486D02*
X207461D01*
Y83104D01*
X210000Y85643D01*
X217617D01*
Y90721D02*
Y98339D01*
X215078Y100878D01*
X212539Y98339D01*
Y93260D01*
X210000Y90721D01*
X207461Y93260D01*
Y100878D01*
X217617Y108495D02*
Y113574D01*
X215078Y116113D01*
X210000D01*
X207461Y113574D01*
Y108495D01*
X210000Y105956D01*
X215078D01*
X217617Y108495D01*
X207461Y121191D02*
X217617D01*
X212539D01*
X210000Y123730D01*
X207461Y126270D01*
Y128809D01*
X204922Y151661D02*
X202383Y154201D01*
Y159279D01*
X204922Y161818D01*
X215078D01*
X217617Y159279D01*
Y154201D01*
X215078Y151661D01*
X204922D01*
X217617Y166896D02*
X215078D01*
Y169436D01*
X217617D01*
Y166896D01*
Y189749D02*
Y179592D01*
X207461Y189749D01*
X204922D01*
X202383Y187210D01*
Y182132D01*
X204922Y179592D01*
X217617Y194827D02*
X207461D01*
X202383Y199906D01*
X207461Y204984D01*
X217617D01*
X210000D01*
Y194827D01*
X320408Y522617D02*
Y512461D01*
X325486Y507383D01*
X330564Y512461D01*
Y522617D01*
X335643Y507383D02*
X340721D01*
X338182D01*
Y517539D01*
X335643D01*
X348339Y522617D02*
Y507383D01*
X355956D01*
X358495Y509922D01*
Y512461D01*
Y515000D01*
X355956Y517539D01*
X348339D01*
X363574D02*
Y507383D01*
Y512461D01*
X366113Y515000D01*
X368652Y517539D01*
X371191D01*
X381348D02*
X386426D01*
X388965Y515000D01*
Y507383D01*
X381348D01*
X378809Y509922D01*
X381348Y512461D01*
X388965D01*
X396583Y520078D02*
Y517539D01*
X394044D01*
X399122D01*
X396583D01*
Y509922D01*
X399122Y507383D01*
X409279D02*
X414357D01*
X416897Y509922D01*
Y515000D01*
X414357Y517539D01*
X409279D01*
X406740Y515000D01*
Y509922D01*
X409279Y507383D01*
X421975Y517539D02*
Y507383D01*
Y512461D01*
X424514Y515000D01*
X427053Y517539D01*
X429592D01*
X307304Y432617D02*
Y417383D01*
X314922D01*
X317461Y419922D01*
Y430078D01*
X314922Y432617D01*
X307304D01*
X322539Y430078D02*
X325078Y432617D01*
X330157D01*
X332696Y430078D01*
Y427539D01*
X330157Y425000D01*
X327617D01*
X330157D01*
X332696Y422461D01*
Y419922D01*
X330157Y417383D01*
X325078D01*
X322539Y419922D01*
X292461Y369922D02*
Y380078D01*
X289922Y382617D01*
X284843D01*
X282304Y380078D01*
Y369922D01*
X284843Y367383D01*
X289922D01*
X287383Y372461D02*
X292461Y367383D01*
X289922D02*
X292461Y369922D01*
X307696Y367383D02*
X297539D01*
X307696Y377539D01*
Y380078D01*
X305157Y382617D01*
X300078D01*
X297539Y380078D01*
X239804Y357383D02*
Y372617D01*
X247422D01*
X249961Y370078D01*
Y365000D01*
X247422Y362461D01*
X239804D01*
X244883D02*
X249961Y357383D01*
X265196D02*
X255039D01*
X265196Y367539D01*
Y370078D01*
X262657Y372617D01*
X257578D01*
X255039Y370078D01*
X12320Y307617D02*
Y297461D01*
X17398Y292383D01*
X22477Y297461D01*
Y307617D01*
X27555Y292383D02*
X32633D01*
X30094D01*
Y302539D01*
X27555D01*
X40251Y307617D02*
Y292383D01*
X47868D01*
X50408Y294922D01*
Y297461D01*
Y300000D01*
X47868Y302539D01*
X40251D01*
X55486D02*
Y292383D01*
Y297461D01*
X58025Y300000D01*
X60564Y302539D01*
X63104D01*
X73260D02*
X78339D01*
X80878Y300000D01*
Y292383D01*
X73260D01*
X70721Y294922D01*
X73260Y297461D01*
X80878D01*
X88495Y305078D02*
Y302539D01*
X85956D01*
X91034D01*
X88495D01*
Y294922D01*
X91034Y292383D01*
X101191D02*
X106270D01*
X108809Y294922D01*
Y300000D01*
X106270Y302539D01*
X101191D01*
X98652Y300000D01*
Y294922D01*
X101191Y292383D01*
X113887Y302539D02*
Y292383D01*
Y297461D01*
X116426Y300000D01*
X118966Y302539D01*
X121505D01*
X129122Y292383D02*
Y307617D01*
X136740D01*
X139279Y305078D01*
Y300000D01*
X136740Y297461D01*
X129122D01*
X146896Y292383D02*
X151975D01*
X154514Y294922D01*
Y300000D01*
X151975Y302539D01*
X146896D01*
X144357Y300000D01*
Y294922D01*
X146896Y292383D01*
X159592Y302539D02*
Y294922D01*
X162132Y292383D01*
X164671Y294922D01*
X167210Y292383D01*
X169749Y294922D01*
Y302539D01*
X182445Y292383D02*
X177367D01*
X174827Y294922D01*
Y300000D01*
X177367Y302539D01*
X182445D01*
X184984Y300000D01*
Y297461D01*
X174827D01*
X190063Y302539D02*
Y292383D01*
Y297461D01*
X192602Y300000D01*
X195141Y302539D01*
X197680D01*
X65721Y92382D02*
Y107618D01*
X73339D01*
X75878Y105078D01*
Y100000D01*
X73339Y97461D01*
X65721D01*
X83495Y92382D02*
X88574D01*
X91113Y94922D01*
Y100000D01*
X88574Y102539D01*
X83495D01*
X80956Y100000D01*
Y94922D01*
X83495Y92382D01*
X96191Y102539D02*
Y94922D01*
X98730Y92382D01*
X101270Y94922D01*
X103809Y92382D01*
X106348Y94922D01*
Y102539D01*
X119044Y92382D02*
X113966D01*
X111426Y94922D01*
Y100000D01*
X113966Y102539D01*
X119044D01*
X121583Y100000D01*
Y97461D01*
X111426D01*
X126661Y102539D02*
Y92382D01*
Y97461D01*
X129201Y100000D01*
X131740Y102539D01*
X134279D01*
X50408Y452617D02*
Y442461D01*
X55486Y437383D01*
X60564Y442461D01*
Y452617D01*
X65643Y437383D02*
X70721D01*
X68182D01*
Y447539D01*
X65643D01*
X78339Y452617D02*
Y437383D01*
X85956D01*
X88495Y439922D01*
Y442461D01*
Y445000D01*
X85956Y447539D01*
X78339D01*
X93574D02*
Y437383D01*
Y442461D01*
X96113Y445000D01*
X98652Y447539D01*
X101191D01*
X111348D02*
X116426D01*
X118966Y445000D01*
Y437383D01*
X111348D01*
X108809Y439922D01*
X111348Y442461D01*
X118966D01*
X126583Y450078D02*
Y447539D01*
X124044D01*
X129122D01*
X126583D01*
Y439922D01*
X129122Y437383D01*
X139279D02*
X144357D01*
X146896Y439922D01*
Y445000D01*
X144357Y447539D01*
X139279D01*
X136740Y445000D01*
Y439922D01*
X139279Y437383D01*
X151975Y447539D02*
Y437383D01*
Y442461D01*
X154514Y445000D01*
X157053Y447539D01*
X159592D01*
X50486Y667383D02*
Y682618D01*
X55564Y677539D01*
X60643Y682618D01*
Y667383D01*
X68260Y677539D02*
X73339D01*
X75878Y675000D01*
Y667383D01*
X68260D01*
X65721Y669922D01*
X68260Y672461D01*
X75878D01*
X80956Y667383D02*
X86034D01*
X83495D01*
Y677539D01*
X80956D01*
X93652Y667383D02*
Y677539D01*
X101270D01*
X103809Y675000D01*
Y667383D01*
X134279D02*
X124122D01*
X134279Y677539D01*
Y680078D01*
X131740Y682618D01*
X126661D01*
X124122Y680078D01*
X139357Y667383D02*
Y677539D01*
X144436Y682618D01*
X149514Y677539D01*
Y667383D01*
Y675000D01*
X139357D01*
X712924Y501671D02*
Y488975D01*
X715463Y486436D01*
X720542D01*
X723081Y488975D01*
Y501671D01*
X728159Y486436D02*
X733237D01*
X730698D01*
Y501671D01*
X728159Y499132D01*
M02*
