G04*
G04 #@! TF.GenerationSoftware,Altium Limited,Altium Designer,24.6.1 (21)*
G04*
G04 Layer_Color=16711935*
%FSLAX44Y44*%
%MOMM*%
G71*
G04*
G04 #@! TF.SameCoordinates,E9AD6EAF-A10B-4CD1-A982-26115741FB32*
G04*
G04*
G04 #@! TF.FilePolarity,Negative*
G04*
G01*
G75*
%ADD37C,1.4032*%
%ADD38R,1.4032X1.4032*%
%ADD39C,1.8532*%
%ADD40R,1.8532X1.8532*%
%ADD41C,1.8682*%
%ADD42C,4.0132*%
%ADD43C,1.7272*%
%ADD44R,1.7272X1.7272*%
%ADD45C,1.4000*%
%ADD46R,1.4000X1.4000*%
%ADD47C,1.8032*%
%ADD48C,2.4532*%
%ADD49R,2.6782X2.6782*%
%ADD50C,2.6782*%
%ADD51C,2.3532*%
%ADD52R,2.3532X2.3532*%
%ADD53C,4.3032*%
D37*
X761200Y725800D02*
D03*
Y700400D02*
D03*
Y675000D02*
D03*
Y649600D02*
D03*
Y624200D02*
D03*
Y598800D02*
D03*
Y573400D02*
D03*
Y548000D02*
D03*
X685000D02*
D03*
Y573400D02*
D03*
Y598800D02*
D03*
Y624200D02*
D03*
Y649600D02*
D03*
Y675000D02*
D03*
Y700400D02*
D03*
D38*
Y725800D02*
D03*
D39*
X611400Y702600D02*
D03*
Y727600D02*
D03*
X535200Y778000D02*
D03*
Y753000D02*
D03*
Y728000D02*
D03*
Y703000D02*
D03*
Y678000D02*
D03*
Y653000D02*
D03*
Y628000D02*
D03*
Y603000D02*
D03*
X459000D02*
D03*
Y628000D02*
D03*
Y653000D02*
D03*
Y678000D02*
D03*
Y703000D02*
D03*
Y728000D02*
D03*
Y753000D02*
D03*
Y778000D02*
D03*
X445000Y80700D02*
D03*
Y55700D02*
D03*
X368800Y80700D02*
D03*
Y55700D02*
D03*
X445000Y170000D02*
D03*
Y195000D02*
D03*
X368800Y170000D02*
D03*
Y195000D02*
D03*
D40*
X611400Y752600D02*
D03*
X535200Y578000D02*
D03*
X459000D02*
D03*
X445000Y105700D02*
D03*
X368800D02*
D03*
X445000Y220000D02*
D03*
X368800D02*
D03*
D41*
X508200Y300000D02*
D03*
Y274600D02*
D03*
Y249200D02*
D03*
Y223800D02*
D03*
Y198400D02*
D03*
Y173000D02*
D03*
Y147600D02*
D03*
Y122200D02*
D03*
Y96800D02*
D03*
Y71400D02*
D03*
D42*
X632660Y300000D02*
D03*
Y71400D02*
D03*
D43*
X533600Y490500D02*
D03*
Y465100D02*
D03*
Y439700D02*
D03*
Y414300D02*
D03*
Y388900D02*
D03*
X635200Y490500D02*
D03*
Y465100D02*
D03*
Y439700D02*
D03*
Y414300D02*
D03*
Y388900D02*
D03*
X724100Y109500D02*
D03*
Y134900D02*
D03*
Y160300D02*
D03*
Y185700D02*
D03*
Y211100D02*
D03*
Y236500D02*
D03*
Y261900D02*
D03*
Y287300D02*
D03*
Y312700D02*
D03*
Y338100D02*
D03*
Y363500D02*
D03*
Y388900D02*
D03*
Y414300D02*
D03*
Y439700D02*
D03*
Y465100D02*
D03*
X749500Y109500D02*
D03*
Y134900D02*
D03*
Y160300D02*
D03*
Y185700D02*
D03*
Y211100D02*
D03*
Y236500D02*
D03*
Y261900D02*
D03*
Y287300D02*
D03*
Y312700D02*
D03*
Y338100D02*
D03*
Y363500D02*
D03*
Y388900D02*
D03*
Y414300D02*
D03*
Y439700D02*
D03*
Y465100D02*
D03*
D44*
X533600Y363500D02*
D03*
X635200D02*
D03*
D45*
X482800Y490500D02*
D03*
Y465500D02*
D03*
Y440500D02*
D03*
Y415500D02*
D03*
Y390500D02*
D03*
D46*
Y365500D02*
D03*
D47*
X356000Y605000D02*
D03*
X381000D02*
D03*
X330000D02*
D03*
D48*
X270000Y283000D02*
D03*
Y57000D02*
D03*
X285000Y500000D02*
D03*
X59000D02*
D03*
X283000Y615000D02*
D03*
X57000D02*
D03*
D49*
X395000Y479600D02*
D03*
D50*
Y440000D02*
D03*
D51*
X105000Y409200D02*
D03*
Y369600D02*
D03*
Y255000D02*
D03*
Y175800D02*
D03*
Y215400D02*
D03*
D52*
Y330000D02*
D03*
Y136200D02*
D03*
D53*
X780000Y810000D02*
D03*
Y40000D02*
D03*
X40000D02*
D03*
Y810000D02*
D03*
M02*
